<mxfile host="app.diagrams.net" agent="Mozilla/5.0 (Windows NT 10.0; Win64; x64) AppleWebKit/537.36 (KHTML, like Gecko) Chrome/130.0.0.0 Safari/537.36" version="24.8.2" pages="4">
  <diagram name="Page-1" id="bceHabPlCtPK3RbAKWbU">
    <mxGraphModel dx="1900" dy="1669" grid="1" gridSize="10" guides="1" tooltips="1" connect="1" arrows="1" fold="1" page="1" pageScale="1" pageWidth="850" pageHeight="1100" math="0" shadow="0">
      <root>
        <mxCell id="0" />
        <mxCell id="1" parent="0" />
        <mxCell id="yrVjvpTWEHT6Zb9O1yOB-2" value="ListaStrani" style="whiteSpace=wrap;html=1;align=center;strokeColor=#0F8B8D;fontColor=#143642;fillColor=#FAE5C7;fontStyle=1" parent="1" vertex="1">
          <mxGeometry x="140" y="100" width="100" height="40" as="geometry" />
        </mxCell>
        <mxCell id="yrVjvpTWEHT6Zb9O1yOB-3" value="Kniga" style="whiteSpace=wrap;html=1;align=center;strokeColor=#0F8B8D;fontColor=#143642;fillColor=#FAE5C7;fontStyle=1" parent="1" vertex="1">
          <mxGeometry x="370" width="100" height="40" as="geometry" />
        </mxCell>
        <mxCell id="yrVjvpTWEHT6Zb9O1yOB-4" value="Spisanie" style="whiteSpace=wrap;html=1;align=center;strokeColor=#0F8B8D;fontColor=#143642;fillColor=#FAE5C7;fontStyle=1" parent="1" vertex="1">
          <mxGeometry x="375" y="180" width="100" height="40" as="geometry" />
        </mxCell>
        <mxCell id="yrVjvpTWEHT6Zb9O1yOB-5" value="Avtor" style="whiteSpace=wrap;html=1;align=center;strokeColor=#0F8B8D;fontColor=#143642;fillColor=#FAE5C7;fontStyle=1" parent="1" vertex="1">
          <mxGeometry x="370" y="-230" width="100" height="40" as="geometry" />
        </mxCell>
        <mxCell id="yrVjvpTWEHT6Zb9O1yOB-6" value="Primerok" style="whiteSpace=wrap;html=1;align=center;strokeColor=#0F8B8D;fontColor=#143642;fillColor=#FAE5C7;fontStyle=1" parent="1" vertex="1">
          <mxGeometry x="680" y="80" width="100" height="40" as="geometry" />
        </mxCell>
        <mxCell id="yrVjvpTWEHT6Zb9O1yOB-7" value="Clen" style="whiteSpace=wrap;html=1;align=center;strokeColor=#0F8B8D;fontColor=#143642;fillColor=#FAE5C7;fontStyle=1" parent="1" vertex="1">
          <mxGeometry x="1050" y="80" width="100" height="40" as="geometry" />
        </mxCell>
        <mxCell id="yrVjvpTWEHT6Zb9O1yOB-8" value="&lt;u&gt;inv.broj&lt;/u&gt;" style="ellipse;whiteSpace=wrap;html=1;align=center;strokeColor=#0F8B8D;fontColor=#143642;fillColor=#FAE5C7;fontStyle=1" parent="1" vertex="1">
          <mxGeometry y="40" width="100" height="40" as="geometry" />
        </mxCell>
        <mxCell id="yrVjvpTWEHT6Zb9O1yOB-9" value="naslov" style="ellipse;whiteSpace=wrap;html=1;align=center;strokeColor=#0F8B8D;fontColor=#143642;fillColor=#FAE5C7;fontStyle=1" parent="1" vertex="1">
          <mxGeometry x="-10" y="110" width="100" height="40" as="geometry" />
        </mxCell>
        <mxCell id="yrVjvpTWEHT6Zb9O1yOB-10" value="brojStrani" style="ellipse;whiteSpace=wrap;html=1;align=center;strokeColor=#0F8B8D;fontColor=#143642;fillColor=#FAE5C7;fontStyle=1" parent="1" vertex="1">
          <mxGeometry x="250" y="-40" width="100" height="40" as="geometry" />
        </mxCell>
        <mxCell id="yrVjvpTWEHT6Zb9O1yOB-11" value="broj" style="ellipse;whiteSpace=wrap;html=1;align=center;strokeColor=#0F8B8D;fontColor=#143642;fillColor=#FAE5C7;fontStyle=1" parent="1" vertex="1">
          <mxGeometry x="320" y="250" width="100" height="40" as="geometry" />
        </mxCell>
        <mxCell id="yrVjvpTWEHT6Zb9O1yOB-13" value="pozajmuva" style="shape=rhombus;perimeter=rhombusPerimeter;whiteSpace=wrap;html=1;align=center;strokeColor=#0F8B8D;fontColor=#143642;fillColor=#FAE5C7;fontStyle=1" parent="1" vertex="1">
          <mxGeometry x="880" y="76.25" width="90" height="50" as="geometry" />
        </mxCell>
        <mxCell id="yrVjvpTWEHT6Zb9O1yOB-14" value="ima" style="shape=rhombus;double=1;perimeter=rhombusPerimeter;whiteSpace=wrap;html=1;align=center;strokeColor=#0F8B8D;fontColor=#143642;fillColor=#FAE5C7;fontStyle=1" parent="1" vertex="1">
          <mxGeometry x="540" y="32.5" width="60" height="40" as="geometry" />
        </mxCell>
        <mxCell id="yrVjvpTWEHT6Zb9O1yOB-15" value="ima" style="shape=rhombus;double=1;perimeter=rhombusPerimeter;whiteSpace=wrap;html=1;align=center;strokeColor=#0F8B8D;fontColor=#143642;fillColor=#FAE5C7;fontStyle=1" parent="1" vertex="1">
          <mxGeometry x="540" y="147.5" width="60" height="40" as="geometry" />
        </mxCell>
        <mxCell id="yrVjvpTWEHT6Zb9O1yOB-17" value="ime" style="ellipse;whiteSpace=wrap;html=1;align=center;strokeColor=#0F8B8D;fontColor=#143642;fillColor=#FAE5C7;fontStyle=1" parent="1" vertex="1">
          <mxGeometry x="280" y="-300" width="100" height="40" as="geometry" />
        </mxCell>
        <mxCell id="yrVjvpTWEHT6Zb9O1yOB-18" value="prezime" style="ellipse;whiteSpace=wrap;html=1;align=center;strokeColor=#0F8B8D;fontColor=#143642;fillColor=#FAE5C7;fontStyle=1;movable=1;resizable=1;rotatable=1;deletable=1;editable=1;locked=0;connectable=1;" parent="1" vertex="1">
          <mxGeometry x="375" y="-330" width="100" height="40" as="geometry" />
        </mxCell>
        <mxCell id="yrVjvpTWEHT6Zb9O1yOB-19" value="birthYear" style="ellipse;whiteSpace=wrap;html=1;align=center;strokeColor=#0F8B8D;fontColor=#143642;fillColor=#FAE5C7;fontStyle=1;movable=1;resizable=1;rotatable=1;deletable=1;editable=1;locked=0;connectable=1;" parent="1" vertex="1">
          <mxGeometry x="455" y="-300" width="100" height="40" as="geometry" />
        </mxCell>
        <mxCell id="yrVjvpTWEHT6Zb9O1yOB-20" value="d" style="ellipse;whiteSpace=wrap;html=1;aspect=fixed;strokeColor=#0F8B8D;fontColor=#143642;fillColor=#FAE5C7;fontStyle=1" parent="1" vertex="1">
          <mxGeometry x="290" y="90" width="40" height="40" as="geometry" />
        </mxCell>
        <mxCell id="yrVjvpTWEHT6Zb9O1yOB-22" value="" style="endArrow=none;html=1;rounded=0;strokeColor=#A8201A;fontColor=#143642;fillColor=#FAE5C7;exitX=1;exitY=0.5;exitDx=0;exitDy=0;entryX=0;entryY=0;entryDx=0;entryDy=0;fontStyle=1" parent="1" source="yrVjvpTWEHT6Zb9O1yOB-8" target="yrVjvpTWEHT6Zb9O1yOB-2" edge="1">
          <mxGeometry width="50" height="50" relative="1" as="geometry">
            <mxPoint x="500" y="120" as="sourcePoint" />
            <mxPoint x="550" y="70" as="targetPoint" />
          </mxGeometry>
        </mxCell>
        <mxCell id="yrVjvpTWEHT6Zb9O1yOB-23" value="" style="endArrow=none;html=1;rounded=0;strokeColor=#A8201A;fontColor=#143642;fillColor=#FAE5C7;entryX=0;entryY=0.5;entryDx=0;entryDy=0;fontStyle=1" parent="1" source="yrVjvpTWEHT6Zb9O1yOB-9" target="yrVjvpTWEHT6Zb9O1yOB-2" edge="1">
          <mxGeometry width="50" height="50" relative="1" as="geometry">
            <mxPoint x="110" y="70" as="sourcePoint" />
            <mxPoint x="150" y="110" as="targetPoint" />
          </mxGeometry>
        </mxCell>
        <mxCell id="yrVjvpTWEHT6Zb9O1yOB-24" value="" style="endArrow=none;html=1;rounded=0;strokeColor=#A8201A;fontColor=#143642;fillColor=#FAE5C7;exitX=1;exitY=0.5;exitDx=0;exitDy=0;entryX=0;entryY=0.5;entryDx=0;entryDy=0;fontStyle=1;shape=link;" parent="1" source="yrVjvpTWEHT6Zb9O1yOB-2" target="yrVjvpTWEHT6Zb9O1yOB-20" edge="1">
          <mxGeometry width="50" height="50" relative="1" as="geometry">
            <mxPoint x="500" y="120" as="sourcePoint" />
            <mxPoint x="550" y="70" as="targetPoint" />
          </mxGeometry>
        </mxCell>
        <mxCell id="yrVjvpTWEHT6Zb9O1yOB-25" value="" style="endArrow=none;html=1;rounded=0;strokeColor=#A8201A;fontColor=#143642;fillColor=#FAE5C7;exitX=0.5;exitY=0;exitDx=0;exitDy=0;entryX=0;entryY=0.75;entryDx=0;entryDy=0;fontStyle=1" parent="1" source="yrVjvpTWEHT6Zb9O1yOB-20" target="yrVjvpTWEHT6Zb9O1yOB-3" edge="1">
          <mxGeometry width="50" height="50" relative="1" as="geometry">
            <mxPoint x="250" y="130" as="sourcePoint" />
            <mxPoint x="300" y="120" as="targetPoint" />
          </mxGeometry>
        </mxCell>
        <mxCell id="yrVjvpTWEHT6Zb9O1yOB-26" value="" style="endArrow=none;html=1;rounded=0;strokeColor=#A8201A;fontColor=#143642;fillColor=#FAE5C7;exitX=0.5;exitY=1;exitDx=0;exitDy=0;entryX=0;entryY=0.5;entryDx=0;entryDy=0;fontStyle=1" parent="1" source="yrVjvpTWEHT6Zb9O1yOB-20" target="yrVjvpTWEHT6Zb9O1yOB-4" edge="1">
          <mxGeometry width="50" height="50" relative="1" as="geometry">
            <mxPoint x="320" y="100" as="sourcePoint" />
            <mxPoint x="370" y="200" as="targetPoint" />
          </mxGeometry>
        </mxCell>
        <mxCell id="yrVjvpTWEHT6Zb9O1yOB-27" value="" style="shape=requiredInterface;html=1;verticalLabelPosition=bottom;sketch=0;strokeColor=#0F8B8D;fontColor=#143642;fillColor=#FAE5C7;rotation=45;fontStyle=1" parent="1" vertex="1">
          <mxGeometry x="330" y="150" width="30" height="30" as="geometry" />
        </mxCell>
        <mxCell id="yrVjvpTWEHT6Zb9O1yOB-28" value="" style="shape=requiredInterface;html=1;verticalLabelPosition=bottom;sketch=0;strokeColor=#0F8B8D;fontColor=#143642;fillColor=#FAE5C7;rotation=-40;fontStyle=1" parent="1" vertex="1">
          <mxGeometry x="330" y="45" width="30" height="30" as="geometry" />
        </mxCell>
        <mxCell id="yrVjvpTWEHT6Zb9O1yOB-29" value="Primerok" style="whiteSpace=wrap;html=1;align=center;strokeColor=#0F8B8D;fontColor=#143642;fillColor=none;fontStyle=1" parent="1" vertex="1">
          <mxGeometry x="675" y="76.25" width="110" height="47.5" as="geometry" />
        </mxCell>
        <mxCell id="yrVjvpTWEHT6Zb9O1yOB-30" value="" style="endArrow=none;html=1;rounded=0;strokeColor=#A8201A;fontColor=#143642;fillColor=#FAE5C7;exitX=0.708;exitY=0.955;exitDx=0;exitDy=0;entryX=0;entryY=0.25;entryDx=0;entryDy=0;exitPerimeter=0;fontStyle=1" parent="1" source="yrVjvpTWEHT6Zb9O1yOB-10" target="yrVjvpTWEHT6Zb9O1yOB-3" edge="1">
          <mxGeometry width="50" height="50" relative="1" as="geometry">
            <mxPoint x="110" y="70" as="sourcePoint" />
            <mxPoint x="150" y="110" as="targetPoint" />
          </mxGeometry>
        </mxCell>
        <mxCell id="yrVjvpTWEHT6Zb9O1yOB-31" value="" style="endArrow=none;html=1;rounded=0;strokeColor=#A8201A;fontColor=#143642;fillColor=#FAE5C7;entryX=0.5;entryY=1;entryDx=0;entryDy=0;exitX=0;exitY=0.25;exitDx=0;exitDy=0;fontStyle=1" parent="1" source="yrVjvpTWEHT6Zb9O1yOB-5" target="yrVjvpTWEHT6Zb9O1yOB-17" edge="1">
          <mxGeometry width="50" height="50" relative="1" as="geometry">
            <mxPoint x="455" y="-40" as="sourcePoint" />
            <mxPoint x="505" y="-90" as="targetPoint" />
          </mxGeometry>
        </mxCell>
        <mxCell id="yrVjvpTWEHT6Zb9O1yOB-32" value="" style="endArrow=none;html=1;rounded=0;strokeColor=#A8201A;fontColor=#143642;fillColor=#FAE5C7;entryX=0.5;entryY=1;entryDx=0;entryDy=0;exitX=0.5;exitY=0;exitDx=0;exitDy=0;fontStyle=1" parent="1" source="yrVjvpTWEHT6Zb9O1yOB-5" target="yrVjvpTWEHT6Zb9O1yOB-18" edge="1">
          <mxGeometry width="50" height="50" relative="1" as="geometry">
            <mxPoint x="385" y="-210" as="sourcePoint" />
            <mxPoint x="340" y="-250" as="targetPoint" />
          </mxGeometry>
        </mxCell>
        <mxCell id="yrVjvpTWEHT6Zb9O1yOB-33" value="" style="endArrow=none;html=1;rounded=0;strokeColor=#A8201A;fontColor=#143642;fillColor=#FAE5C7;entryX=0.5;entryY=1;entryDx=0;entryDy=0;exitX=1;exitY=0;exitDx=0;exitDy=0;fontStyle=1" parent="1" source="yrVjvpTWEHT6Zb9O1yOB-5" target="yrVjvpTWEHT6Zb9O1yOB-19" edge="1">
          <mxGeometry width="50" height="50" relative="1" as="geometry">
            <mxPoint x="435" y="-220" as="sourcePoint" />
            <mxPoint x="435" y="-280" as="targetPoint" />
          </mxGeometry>
        </mxCell>
        <mxCell id="yrVjvpTWEHT6Zb9O1yOB-34" value="napisal" style="shape=rhombus;perimeter=rhombusPerimeter;whiteSpace=wrap;html=1;align=center;strokeColor=#0F8B8D;fontColor=#143642;fillColor=#FAE5C7;fontStyle=1" parent="1" vertex="1">
          <mxGeometry x="375" y="-130" width="90" height="50" as="geometry" />
        </mxCell>
        <mxCell id="yrVjvpTWEHT6Zb9O1yOB-35" value="" style="endArrow=none;html=1;rounded=0;strokeColor=#A8201A;fontColor=#143642;fillColor=#FAE5C7;entryX=0.5;entryY=1;entryDx=0;entryDy=0;shape=link;fontStyle=1" parent="1" source="yrVjvpTWEHT6Zb9O1yOB-34" target="yrVjvpTWEHT6Zb9O1yOB-5" edge="1">
          <mxGeometry width="50" height="50" relative="1" as="geometry">
            <mxPoint x="450" y="20" as="sourcePoint" />
            <mxPoint x="500" y="-30" as="targetPoint" />
          </mxGeometry>
        </mxCell>
        <mxCell id="yrVjvpTWEHT6Zb9O1yOB-36" value="" style="endArrow=none;html=1;rounded=0;strokeColor=#A8201A;fontColor=#143642;fillColor=#FAE5C7;entryX=0.5;entryY=0;entryDx=0;entryDy=0;shape=link;exitX=0.5;exitY=1;exitDx=0;exitDy=0;fontStyle=1" parent="1" source="yrVjvpTWEHT6Zb9O1yOB-34" target="yrVjvpTWEHT6Zb9O1yOB-3" edge="1">
          <mxGeometry width="50" height="50" relative="1" as="geometry">
            <mxPoint x="430" y="-120" as="sourcePoint" />
            <mxPoint x="430" y="-180" as="targetPoint" />
          </mxGeometry>
        </mxCell>
        <mxCell id="yrVjvpTWEHT6Zb9O1yOB-37" value="M" style="text;html=1;align=center;verticalAlign=middle;whiteSpace=wrap;rounded=0;fontColor=#143642;fontStyle=1" parent="1" vertex="1">
          <mxGeometry x="420" y="-150" width="60" height="30" as="geometry" />
        </mxCell>
        <mxCell id="yrVjvpTWEHT6Zb9O1yOB-38" value="N" style="text;html=1;align=center;verticalAlign=middle;whiteSpace=wrap;rounded=0;fontColor=#143642;fontStyle=1" parent="1" vertex="1">
          <mxGeometry x="420" y="-90" width="60" height="30" as="geometry" />
        </mxCell>
        <mxCell id="yrVjvpTWEHT6Zb9O1yOB-39" value="" style="endArrow=none;html=1;rounded=0;strokeColor=#A8201A;fontColor=#143642;fillColor=#FAE5C7;entryX=1;entryY=0.5;entryDx=0;entryDy=0;exitX=0;exitY=0;exitDx=0;exitDy=0;fontStyle=1" parent="1" source="yrVjvpTWEHT6Zb9O1yOB-14" target="yrVjvpTWEHT6Zb9O1yOB-3" edge="1">
          <mxGeometry width="50" height="50" relative="1" as="geometry">
            <mxPoint x="480" y="120" as="sourcePoint" />
            <mxPoint x="500" y="20" as="targetPoint" />
          </mxGeometry>
        </mxCell>
        <mxCell id="yrVjvpTWEHT6Zb9O1yOB-40" value="" style="endArrow=none;html=1;rounded=0;strokeColor=#A8201A;fontColor=#143642;fillColor=#FAE5C7;shape=link;exitX=0;exitY=0.25;exitDx=0;exitDy=0;fontStyle=1" parent="1" source="yrVjvpTWEHT6Zb9O1yOB-29" edge="1">
          <mxGeometry width="50" height="50" relative="1" as="geometry">
            <mxPoint x="430" y="-70" as="sourcePoint" />
            <mxPoint x="590" y="60" as="targetPoint" />
          </mxGeometry>
        </mxCell>
        <mxCell id="yrVjvpTWEHT6Zb9O1yOB-41" value="" style="endArrow=none;html=1;rounded=0;strokeColor=#A8201A;fontColor=#143642;fillColor=#FAE5C7;shape=link;fontStyle=1" parent="1" target="yrVjvpTWEHT6Zb9O1yOB-15" edge="1">
          <mxGeometry width="50" height="50" relative="1" as="geometry">
            <mxPoint x="680" y="100" as="sourcePoint" />
            <mxPoint x="600" y="70" as="targetPoint" />
          </mxGeometry>
        </mxCell>
        <mxCell id="yrVjvpTWEHT6Zb9O1yOB-42" value="" style="endArrow=none;html=1;rounded=0;strokeColor=#A8201A;fontColor=#143642;fillColor=#FAE5C7;entryX=1;entryY=0.5;entryDx=0;entryDy=0;fontStyle=1" parent="1" source="yrVjvpTWEHT6Zb9O1yOB-15" target="yrVjvpTWEHT6Zb9O1yOB-4" edge="1">
          <mxGeometry width="50" height="50" relative="1" as="geometry">
            <mxPoint x="565" y="53" as="sourcePoint" />
            <mxPoint x="480" y="30" as="targetPoint" />
          </mxGeometry>
        </mxCell>
        <mxCell id="yrVjvpTWEHT6Zb9O1yOB-43" value="1" style="text;html=1;align=center;verticalAlign=middle;whiteSpace=wrap;rounded=0;fontColor=#143642;fontStyle=1" parent="1" vertex="1">
          <mxGeometry x="500" y="5" width="60" height="30" as="geometry" />
        </mxCell>
        <mxCell id="yrVjvpTWEHT6Zb9O1yOB-44" value="M" style="text;html=1;align=center;verticalAlign=middle;whiteSpace=wrap;rounded=0;fontColor=#143642;fontStyle=1" parent="1" vertex="1">
          <mxGeometry x="580" y="15" width="60" height="30" as="geometry" />
        </mxCell>
        <mxCell id="yrVjvpTWEHT6Zb9O1yOB-45" value="M" style="text;html=1;align=center;verticalAlign=middle;whiteSpace=wrap;rounded=0;fontColor=#143642;fontStyle=1" parent="1" vertex="1">
          <mxGeometry x="560" y="125" width="60" height="30" as="geometry" />
        </mxCell>
        <mxCell id="yrVjvpTWEHT6Zb9O1yOB-46" value="1" style="text;html=1;align=center;verticalAlign=middle;whiteSpace=wrap;rounded=0;fontColor=#143642;fontStyle=1" parent="1" vertex="1">
          <mxGeometry x="490" y="147.5" width="60" height="30" as="geometry" />
        </mxCell>
        <mxCell id="yrVjvpTWEHT6Zb9O1yOB-48" value="" style="endArrow=none;html=1;rounded=0;strokeColor=#A8201A;fontColor=#143642;fillColor=#FAE5C7;shape=link;exitX=0;exitY=0.5;exitDx=0;exitDy=0;entryX=1;entryY=0.5;entryDx=0;entryDy=0;fontStyle=1" parent="1" source="yrVjvpTWEHT6Zb9O1yOB-7" target="yrVjvpTWEHT6Zb9O1yOB-13" edge="1">
          <mxGeometry width="50" height="50" relative="1" as="geometry">
            <mxPoint x="685" y="98" as="sourcePoint" />
            <mxPoint x="600" y="70" as="targetPoint" />
          </mxGeometry>
        </mxCell>
        <mxCell id="yrVjvpTWEHT6Zb9O1yOB-49" value="" style="endArrow=none;html=1;rounded=0;strokeColor=#A8201A;fontColor=#143642;fillColor=#FAE5C7;exitX=1;exitY=0.5;exitDx=0;exitDy=0;fontStyle=1" parent="1" source="yrVjvpTWEHT6Zb9O1yOB-29" target="yrVjvpTWEHT6Zb9O1yOB-13" edge="1">
          <mxGeometry width="50" height="50" relative="1" as="geometry">
            <mxPoint x="640" y="120" as="sourcePoint" />
            <mxPoint x="690" y="70" as="targetPoint" />
          </mxGeometry>
        </mxCell>
        <mxCell id="yrVjvpTWEHT6Zb9O1yOB-50" value="M" style="text;html=1;align=center;verticalAlign=middle;whiteSpace=wrap;rounded=0;fontColor=#143642;fontStyle=1" parent="1" vertex="1">
          <mxGeometry x="830" y="70" width="60" height="30" as="geometry" />
        </mxCell>
        <mxCell id="yrVjvpTWEHT6Zb9O1yOB-51" value="N" style="text;html=1;align=center;verticalAlign=middle;whiteSpace=wrap;rounded=0;fontColor=#143642;fontStyle=1" parent="1" vertex="1">
          <mxGeometry x="950" y="70" width="60" height="30" as="geometry" />
        </mxCell>
      </root>
    </mxGraphModel>
  </diagram>
  <diagram id="8f8SL79mhIso60SnTj1L" name="Page-2">
    <mxGraphModel dx="2085" dy="1769" grid="1" gridSize="10" guides="1" tooltips="1" connect="1" arrows="1" fold="1" page="1" pageScale="1" pageWidth="850" pageHeight="1100" math="0" shadow="0">
      <root>
        <mxCell id="0" />
        <mxCell id="1" parent="0" />
        <mxCell id="7zYu00_vVBkscI9TaZuZ-47" value="Vraboten" style="whiteSpace=wrap;html=1;align=center;strokeColor=#0F8B8D;fontColor=#143642;fillColor=#FAE5C7;fontStyle=1" vertex="1" parent="1">
          <mxGeometry x="90" y="100" width="100" height="40" as="geometry" />
        </mxCell>
        <mxCell id="7zYu00_vVBkscI9TaZuZ-48" value="ime" style="ellipse;whiteSpace=wrap;html=1;align=center;strokeColor=#0F8B8D;fontColor=#143642;fillColor=#FAE5C7;fontStyle=1" vertex="1" parent="1">
          <mxGeometry x="-30" y="40" width="100" height="40" as="geometry" />
        </mxCell>
        <mxCell id="7zYu00_vVBkscI9TaZuZ-49" value="prezime" style="ellipse;whiteSpace=wrap;html=1;align=center;strokeColor=#0F8B8D;fontColor=#143642;fillColor=#FAE5C7;fontStyle=1" vertex="1" parent="1">
          <mxGeometry x="-50" y="90" width="100" height="40" as="geometry" />
        </mxCell>
        <mxCell id="7zYu00_vVBkscI9TaZuZ-51" value="adresa" style="ellipse;whiteSpace=wrap;html=1;align=center;strokeColor=#0F8B8D;fontColor=#143642;fillColor=#FAE5C7;fontStyle=1" vertex="1" parent="1">
          <mxGeometry x="-40" y="150" width="100" height="40" as="geometry" />
        </mxCell>
        <mxCell id="7zYu00_vVBkscI9TaZuZ-52" value="datumVrabotuvanje" style="ellipse;whiteSpace=wrap;html=1;align=center;strokeColor=#0F8B8D;fontColor=#143642;fillColor=#FAE5C7;fontStyle=1" vertex="1" parent="1">
          <mxGeometry x="70" y="190" width="110" height="40" as="geometry" />
        </mxCell>
        <mxCell id="7zYu00_vVBkscI9TaZuZ-53" value="&lt;u&gt;embg&lt;/u&gt;" style="ellipse;whiteSpace=wrap;html=1;align=center;strokeColor=#0F8B8D;fontColor=#143642;fillColor=#FAE5C7;fontStyle=1" vertex="1" parent="1">
          <mxGeometry x="70" y="20" width="100" height="40" as="geometry" />
        </mxCell>
        <mxCell id="7zYu00_vVBkscI9TaZuZ-54" value="grad" style="ellipse;whiteSpace=wrap;html=1;align=center;strokeColor=#0F8B8D;fontColor=#143642;fillColor=#FAE5C7;fontStyle=1" vertex="1" parent="1">
          <mxGeometry x="-190" y="120" width="100" height="40" as="geometry" />
        </mxCell>
        <mxCell id="7zYu00_vVBkscI9TaZuZ-55" value="ulica" style="ellipse;whiteSpace=wrap;html=1;align=center;strokeColor=#0F8B8D;fontColor=#143642;fillColor=#FAE5C7;fontStyle=1" vertex="1" parent="1">
          <mxGeometry x="-190" y="160" width="100" height="40" as="geometry" />
        </mxCell>
        <mxCell id="7zYu00_vVBkscI9TaZuZ-56" value="broj" style="ellipse;whiteSpace=wrap;html=1;align=center;strokeColor=#0F8B8D;fontColor=#143642;fillColor=#FAE5C7;fontStyle=1" vertex="1" parent="1">
          <mxGeometry x="-190" y="200" width="100" height="40" as="geometry" />
        </mxCell>
        <mxCell id="7zYu00_vVBkscI9TaZuZ-57" value="" style="endArrow=none;html=1;rounded=0;strokeColor=#A8201A;fontColor=#143642;fillColor=#FAE5C7;entryX=0.5;entryY=1;entryDx=0;entryDy=0;exitX=0.5;exitY=0;exitDx=0;exitDy=0;fontStyle=1" edge="1" parent="1" source="7zYu00_vVBkscI9TaZuZ-47" target="7zYu00_vVBkscI9TaZuZ-53">
          <mxGeometry width="50" height="50" relative="1" as="geometry">
            <mxPoint x="230" y="270" as="sourcePoint" />
            <mxPoint x="280" y="220" as="targetPoint" />
          </mxGeometry>
        </mxCell>
        <mxCell id="7zYu00_vVBkscI9TaZuZ-58" value="" style="endArrow=none;html=1;rounded=0;strokeColor=#A8201A;fontColor=#143642;fillColor=#FAE5C7;entryX=1;entryY=1;entryDx=0;entryDy=0;exitX=0;exitY=0;exitDx=0;exitDy=0;fontStyle=1" edge="1" parent="1" source="7zYu00_vVBkscI9TaZuZ-47" target="7zYu00_vVBkscI9TaZuZ-48">
          <mxGeometry width="50" height="50" relative="1" as="geometry">
            <mxPoint x="150" y="110" as="sourcePoint" />
            <mxPoint x="130" y="70" as="targetPoint" />
          </mxGeometry>
        </mxCell>
        <mxCell id="7zYu00_vVBkscI9TaZuZ-59" value="" style="endArrow=none;html=1;rounded=0;strokeColor=#A8201A;fontColor=#143642;fillColor=#FAE5C7;entryX=1;entryY=0.5;entryDx=0;entryDy=0;exitX=0;exitY=0.25;exitDx=0;exitDy=0;fontStyle=1" edge="1" parent="1" source="7zYu00_vVBkscI9TaZuZ-47" target="7zYu00_vVBkscI9TaZuZ-49">
          <mxGeometry width="50" height="50" relative="1" as="geometry">
            <mxPoint x="100" y="110" as="sourcePoint" />
            <mxPoint x="65" y="84" as="targetPoint" />
          </mxGeometry>
        </mxCell>
        <mxCell id="7zYu00_vVBkscI9TaZuZ-60" value="" style="endArrow=none;html=1;rounded=0;strokeColor=#A8201A;fontColor=#143642;fillColor=#FAE5C7;entryX=1;entryY=0;entryDx=0;entryDy=0;exitX=0;exitY=0.75;exitDx=0;exitDy=0;fontStyle=1" edge="1" parent="1" source="7zYu00_vVBkscI9TaZuZ-47" target="7zYu00_vVBkscI9TaZuZ-51">
          <mxGeometry width="50" height="50" relative="1" as="geometry">
            <mxPoint x="100" y="120" as="sourcePoint" />
            <mxPoint x="60" y="120" as="targetPoint" />
          </mxGeometry>
        </mxCell>
        <mxCell id="7zYu00_vVBkscI9TaZuZ-61" value="" style="endArrow=none;html=1;rounded=0;strokeColor=#A8201A;fontColor=#143642;fillColor=#FAE5C7;entryX=0.388;entryY=-0.071;entryDx=0;entryDy=0;exitX=0.394;exitY=1.036;exitDx=0;exitDy=0;exitPerimeter=0;entryPerimeter=0;fontStyle=1" edge="1" parent="1" source="7zYu00_vVBkscI9TaZuZ-47" target="7zYu00_vVBkscI9TaZuZ-52">
          <mxGeometry width="50" height="50" relative="1" as="geometry">
            <mxPoint x="100" y="140" as="sourcePoint" />
            <mxPoint x="55" y="166" as="targetPoint" />
          </mxGeometry>
        </mxCell>
        <mxCell id="7zYu00_vVBkscI9TaZuZ-62" value="" style="endArrow=none;html=1;rounded=0;strokeColor=#A8201A;fontColor=#143642;fillColor=#FAE5C7;entryX=1;entryY=0.5;entryDx=0;entryDy=0;fontStyle=1" edge="1" parent="1" source="7zYu00_vVBkscI9TaZuZ-51" target="7zYu00_vVBkscI9TaZuZ-54">
          <mxGeometry width="50" height="50" relative="1" as="geometry">
            <mxPoint x="100" y="140" as="sourcePoint" />
            <mxPoint x="55" y="166" as="targetPoint" />
          </mxGeometry>
        </mxCell>
        <mxCell id="7zYu00_vVBkscI9TaZuZ-63" value="" style="endArrow=none;html=1;rounded=0;strokeColor=#A8201A;fontColor=#143642;fillColor=#FAE5C7;entryX=1;entryY=0.5;entryDx=0;entryDy=0;fontStyle=1" edge="1" parent="1" target="7zYu00_vVBkscI9TaZuZ-55">
          <mxGeometry width="50" height="50" relative="1" as="geometry">
            <mxPoint x="-40" y="170" as="sourcePoint" />
            <mxPoint x="-80" y="150" as="targetPoint" />
          </mxGeometry>
        </mxCell>
        <mxCell id="7zYu00_vVBkscI9TaZuZ-64" value="" style="endArrow=none;html=1;rounded=0;strokeColor=#A8201A;fontColor=#143642;fillColor=#FAE5C7;entryX=1;entryY=0.5;entryDx=0;entryDy=0;exitX=0;exitY=1;exitDx=0;exitDy=0;fontStyle=1" edge="1" parent="1" source="7zYu00_vVBkscI9TaZuZ-51" target="7zYu00_vVBkscI9TaZuZ-56">
          <mxGeometry width="50" height="50" relative="1" as="geometry">
            <mxPoint x="-30" y="180" as="sourcePoint" />
            <mxPoint x="-80" y="190" as="targetPoint" />
          </mxGeometry>
        </mxCell>
        <mxCell id="7zYu00_vVBkscI9TaZuZ-65" value="Programer" style="whiteSpace=wrap;html=1;align=center;strokeColor=#0F8B8D;fontColor=#143642;fillColor=#FAE5C7;fontStyle=1" vertex="1" parent="1">
          <mxGeometry x="325" width="100" height="40" as="geometry" />
        </mxCell>
        <mxCell id="7zYu00_vVBkscI9TaZuZ-66" value="Analiticar" style="whiteSpace=wrap;html=1;align=center;strokeColor=#0F8B8D;fontColor=#143642;fillColor=#FAE5C7;fontStyle=1" vertex="1" parent="1">
          <mxGeometry x="325" y="220" width="100" height="40" as="geometry" />
        </mxCell>
        <mxCell id="7zYu00_vVBkscI9TaZuZ-67" value="d" style="ellipse;whiteSpace=wrap;html=1;aspect=fixed;strokeColor=#0F8B8D;fontColor=#143642;fillColor=#FAE5C7;fontStyle=1" vertex="1" parent="1">
          <mxGeometry x="240" y="100" width="40" height="40" as="geometry" />
        </mxCell>
        <mxCell id="7zYu00_vVBkscI9TaZuZ-68" value="" style="endArrow=none;html=1;rounded=0;strokeColor=#A8201A;fontColor=#143642;fillColor=#FAE5C7;exitX=1;exitY=0.5;exitDx=0;exitDy=0;entryX=0;entryY=0.5;entryDx=0;entryDy=0;shape=link;fontStyle=1" edge="1" parent="1" source="7zYu00_vVBkscI9TaZuZ-47" target="7zYu00_vVBkscI9TaZuZ-67">
          <mxGeometry width="50" height="50" relative="1" as="geometry">
            <mxPoint x="230" y="180" as="sourcePoint" />
            <mxPoint x="280" y="130" as="targetPoint" />
          </mxGeometry>
        </mxCell>
        <mxCell id="7zYu00_vVBkscI9TaZuZ-69" value="" style="endArrow=none;html=1;rounded=0;strokeColor=#A8201A;fontColor=#143642;fillColor=#FAE5C7;entryX=0.25;entryY=1;entryDx=0;entryDy=0;exitX=1;exitY=0;exitDx=0;exitDy=0;fontStyle=1" edge="1" parent="1" source="7zYu00_vVBkscI9TaZuZ-67" target="7zYu00_vVBkscI9TaZuZ-65">
          <mxGeometry width="50" height="50" relative="1" as="geometry">
            <mxPoint x="230" y="180" as="sourcePoint" />
            <mxPoint x="280" y="130" as="targetPoint" />
          </mxGeometry>
        </mxCell>
        <mxCell id="7zYu00_vVBkscI9TaZuZ-70" value="" style="endArrow=none;html=1;rounded=0;strokeColor=#A8201A;fontColor=#143642;fillColor=#FAE5C7;entryX=0.071;entryY=0.017;entryDx=0;entryDy=0;exitX=0.702;exitY=0.998;exitDx=0;exitDy=0;exitPerimeter=0;entryPerimeter=0;fontStyle=1" edge="1" parent="1" source="7zYu00_vVBkscI9TaZuZ-67" target="7zYu00_vVBkscI9TaZuZ-66">
          <mxGeometry width="50" height="50" relative="1" as="geometry">
            <mxPoint x="284" y="116" as="sourcePoint" />
            <mxPoint x="360" y="50" as="targetPoint" />
          </mxGeometry>
        </mxCell>
        <mxCell id="7zYu00_vVBkscI9TaZuZ-71" value="" style="shape=requiredInterface;html=1;verticalLabelPosition=bottom;sketch=0;strokeColor=#0F8B8D;fontColor=#143642;fillColor=#FAE5C7;rotation=-45;fontStyle=1" vertex="1" parent="1">
          <mxGeometry x="290" y="60" width="40" height="30" as="geometry" />
        </mxCell>
        <mxCell id="7zYu00_vVBkscI9TaZuZ-72" value="" style="shape=requiredInterface;html=1;verticalLabelPosition=bottom;sketch=0;strokeColor=#0F8B8D;fontColor=#143642;fillColor=#FAE5C7;rotation=55;fontStyle=1" vertex="1" parent="1">
          <mxGeometry x="270" y="155" width="40" height="30" as="geometry" />
        </mxCell>
        <mxCell id="7zYu00_vVBkscI9TaZuZ-73" value="diploma" style="ellipse;whiteSpace=wrap;html=1;align=center;strokeColor=#0F8B8D;fontColor=#143642;fillColor=#FAE5C7;fontStyle=1" vertex="1" parent="1">
          <mxGeometry x="220" y="270" width="110" height="40" as="geometry" />
        </mxCell>
        <mxCell id="7zYu00_vVBkscI9TaZuZ-74" value="" style="endArrow=none;html=1;rounded=0;strokeColor=#A8201A;fontColor=#143642;fillColor=#FAE5C7;entryX=0;entryY=0.75;entryDx=0;entryDy=0;exitX=0.562;exitY=0.005;exitDx=0;exitDy=0;exitPerimeter=0;fontStyle=1" edge="1" parent="1" source="7zYu00_vVBkscI9TaZuZ-73" target="7zYu00_vVBkscI9TaZuZ-66">
          <mxGeometry width="50" height="50" relative="1" as="geometry">
            <mxPoint x="278" y="150" as="sourcePoint" />
            <mxPoint x="342" y="231" as="targetPoint" />
          </mxGeometry>
        </mxCell>
        <mxCell id="7zYu00_vVBkscI9TaZuZ-75" value="status" style="ellipse;whiteSpace=wrap;html=1;align=center;strokeColor=#0F8B8D;fontColor=#143642;fillColor=#FAE5C7;fontStyle=1" vertex="1" parent="1">
          <mxGeometry x="180" y="-50" width="100" height="40" as="geometry" />
        </mxCell>
        <mxCell id="7zYu00_vVBkscI9TaZuZ-76" value="" style="endArrow=none;html=1;rounded=0;strokeColor=#A8201A;fontColor=#143642;fillColor=#FAE5C7;entryX=1;entryY=1;entryDx=0;entryDy=0;exitX=0;exitY=0.25;exitDx=0;exitDy=0;fontStyle=1" edge="1" parent="1" source="7zYu00_vVBkscI9TaZuZ-65" target="7zYu00_vVBkscI9TaZuZ-75">
          <mxGeometry width="50" height="50" relative="1" as="geometry">
            <mxPoint x="150" y="110" as="sourcePoint" />
            <mxPoint x="130" y="70" as="targetPoint" />
          </mxGeometry>
        </mxCell>
        <mxCell id="7zYu00_vVBkscI9TaZuZ-77" value="Dokumentacija" style="whiteSpace=wrap;html=1;align=center;strokeColor=#0F8B8D;fontColor=#143642;fillColor=#FAE5C7;fontStyle=1" vertex="1" parent="1">
          <mxGeometry x="620" y="220" width="100" height="40" as="geometry" />
        </mxCell>
        <mxCell id="7zYu00_vVBkscI9TaZuZ-78" value="&lt;u&gt;id&lt;/u&gt;" style="ellipse;whiteSpace=wrap;html=1;align=center;strokeColor=#0F8B8D;fontColor=#143642;fillColor=#FAE5C7;fontStyle=1" vertex="1" parent="1">
          <mxGeometry x="590" y="300" width="100" height="40" as="geometry" />
        </mxCell>
        <mxCell id="7zYu00_vVBkscI9TaZuZ-80" value="" style="endArrow=none;html=1;rounded=0;strokeColor=#A8201A;fontColor=#143642;fillColor=#FAE5C7;entryX=0.5;entryY=1;entryDx=0;entryDy=0;exitX=0.5;exitY=0;exitDx=0;exitDy=0;fontStyle=1" edge="1" parent="1" source="7zYu00_vVBkscI9TaZuZ-78" target="7zYu00_vVBkscI9TaZuZ-77">
          <mxGeometry width="50" height="50" relative="1" as="geometry">
            <mxPoint x="450" y="180" as="sourcePoint" />
            <mxPoint x="500" y="130" as="targetPoint" />
          </mxGeometry>
        </mxCell>
        <mxCell id="7zYu00_vVBkscI9TaZuZ-81" value="" style="endArrow=none;html=1;rounded=0;strokeColor=#A8201A;fontColor=#143642;fillColor=#FAE5C7;exitX=1;exitY=0.5;exitDx=0;exitDy=0;entryX=0;entryY=0.5;entryDx=0;entryDy=0;fontStyle=1" edge="1" parent="1" source="7zYu00_vVBkscI9TaZuZ-66" target="7zYu00_vVBkscI9TaZuZ-103">
          <mxGeometry width="50" height="50" relative="1" as="geometry">
            <mxPoint x="450" y="180" as="sourcePoint" />
            <mxPoint x="480" y="240" as="targetPoint" />
          </mxGeometry>
        </mxCell>
        <mxCell id="7zYu00_vVBkscI9TaZuZ-82" value="" style="endArrow=none;html=1;rounded=0;strokeColor=#A8201A;fontColor=#143642;fillColor=#FAE5C7;entryX=0;entryY=0.5;entryDx=0;entryDy=0;shape=link;fontStyle=1;exitX=1;exitY=0.5;exitDx=0;exitDy=0;" edge="1" parent="1" source="7zYu00_vVBkscI9TaZuZ-103" target="7zYu00_vVBkscI9TaZuZ-77">
          <mxGeometry width="50" height="50" relative="1" as="geometry">
            <mxPoint x="570" y="240" as="sourcePoint" />
            <mxPoint x="490" y="250" as="targetPoint" />
          </mxGeometry>
        </mxCell>
        <mxCell id="7zYu00_vVBkscI9TaZuZ-83" value="M" style="text;html=1;align=center;verticalAlign=middle;whiteSpace=wrap;rounded=0;fontColor=#143642;fontStyle=1" vertex="1" parent="1">
          <mxGeometry x="450" y="210" width="60" height="30" as="geometry" />
        </mxCell>
        <mxCell id="7zYu00_vVBkscI9TaZuZ-84" value="N" style="text;html=1;align=center;verticalAlign=middle;whiteSpace=wrap;rounded=0;fontColor=#143642;fontStyle=1" vertex="1" parent="1">
          <mxGeometry x="540" y="210" width="60" height="30" as="geometry" />
        </mxCell>
        <mxCell id="7zYu00_vVBkscI9TaZuZ-85" value="Modul" style="whiteSpace=wrap;html=1;align=center;strokeColor=#0F8B8D;fontColor=#143642;fillColor=#FAE5C7;fontStyle=1" vertex="1" parent="1">
          <mxGeometry x="350" y="-250" width="100" height="40" as="geometry" />
        </mxCell>
        <mxCell id="7zYu00_vVBkscI9TaZuZ-86" value="implementira" style="shape=rhombus;perimeter=rhombusPerimeter;whiteSpace=wrap;html=1;align=center;strokeColor=#0F8B8D;fontColor=#143642;fillColor=#FAE5C7;fontStyle=1" vertex="1" parent="1">
          <mxGeometry x="360" y="-110" width="100" height="50" as="geometry" />
        </mxCell>
        <mxCell id="7zYu00_vVBkscI9TaZuZ-87" value="" style="endArrow=none;html=1;rounded=0;strokeColor=#A8201A;fontColor=#143642;fillColor=#FAE5C7;entryX=0.5;entryY=1;entryDx=0;entryDy=0;exitX=0.5;exitY=0;exitDx=0;exitDy=0;shape=link;fontStyle=1" edge="1" parent="1" source="7zYu00_vVBkscI9TaZuZ-86" target="7zYu00_vVBkscI9TaZuZ-85">
          <mxGeometry width="50" height="50" relative="1" as="geometry">
            <mxPoint x="450" y="80" as="sourcePoint" />
            <mxPoint x="500" y="30" as="targetPoint" />
          </mxGeometry>
        </mxCell>
        <mxCell id="7zYu00_vVBkscI9TaZuZ-88" value="" style="endArrow=none;html=1;rounded=0;strokeColor=#A8201A;fontColor=#143642;fillColor=#FAE5C7;exitX=0.5;exitY=0;exitDx=0;exitDy=0;entryX=0.5;entryY=1;entryDx=0;entryDy=0;fontStyle=1" edge="1" parent="1" source="7zYu00_vVBkscI9TaZuZ-65" target="7zYu00_vVBkscI9TaZuZ-86">
          <mxGeometry width="50" height="50" relative="1" as="geometry">
            <mxPoint x="450" y="80" as="sourcePoint" />
            <mxPoint x="500" y="30" as="targetPoint" />
          </mxGeometry>
        </mxCell>
        <mxCell id="7zYu00_vVBkscI9TaZuZ-89" value="M" style="text;html=1;align=center;verticalAlign=middle;whiteSpace=wrap;rounded=0;fontColor=#143642;fontStyle=1" vertex="1" parent="1">
          <mxGeometry x="405" y="-130" width="60" height="30" as="geometry" />
        </mxCell>
        <mxCell id="7zYu00_vVBkscI9TaZuZ-91" value="N" style="text;html=1;align=center;verticalAlign=middle;whiteSpace=wrap;rounded=0;fontColor=#143642;fontStyle=1" vertex="1" parent="1">
          <mxGeometry x="405" y="-70" width="60" height="30" as="geometry" />
        </mxCell>
        <mxCell id="7zYu00_vVBkscI9TaZuZ-92" value="Proekt" style="whiteSpace=wrap;html=1;align=center;strokeColor=#0F8B8D;fontColor=#143642;fillColor=#FAE5C7;fontStyle=1" vertex="1" parent="1">
          <mxGeometry x="800" y="10" width="100" height="40" as="geometry" />
        </mxCell>
        <mxCell id="7zYu00_vVBkscI9TaZuZ-94" value="datum" style="ellipse;whiteSpace=wrap;html=1;align=center;strokeColor=#0F8B8D;fontColor=#143642;fillColor=#FAE5C7;fontStyle=1" vertex="1" parent="1">
          <mxGeometry x="225" y="-170" width="100" height="40" as="geometry" />
        </mxCell>
        <mxCell id="7zYu00_vVBkscI9TaZuZ-95" value="brCasovi" style="ellipse;whiteSpace=wrap;html=1;align=center;strokeColor=#0F8B8D;fontColor=#143642;fillColor=#FAE5C7;fontStyle=1" vertex="1" parent="1">
          <mxGeometry x="200" y="-110" width="100" height="40" as="geometry" />
        </mxCell>
        <mxCell id="7zYu00_vVBkscI9TaZuZ-96" value="" style="endArrow=none;html=1;rounded=0;strokeColor=#A8201A;fontColor=#143642;fillColor=#FAE5C7;entryX=0.5;entryY=1;entryDx=0;entryDy=0;fontStyle=1" edge="1" parent="1" source="7zYu00_vVBkscI9TaZuZ-86" target="7zYu00_vVBkscI9TaZuZ-94">
          <mxGeometry width="50" height="50" relative="1" as="geometry">
            <mxPoint x="560" y="80" as="sourcePoint" />
            <mxPoint x="610" y="30" as="targetPoint" />
          </mxGeometry>
        </mxCell>
        <mxCell id="7zYu00_vVBkscI9TaZuZ-97" value="" style="endArrow=none;html=1;rounded=0;strokeColor=#A8201A;fontColor=#143642;fillColor=#FAE5C7;entryX=1;entryY=1;entryDx=0;entryDy=0;exitX=0;exitY=1;exitDx=0;exitDy=0;fontStyle=1" edge="1" parent="1" source="7zYu00_vVBkscI9TaZuZ-86" target="7zYu00_vVBkscI9TaZuZ-95">
          <mxGeometry width="50" height="50" relative="1" as="geometry">
            <mxPoint x="380" y="-72" as="sourcePoint" />
            <mxPoint x="480" y="-120" as="targetPoint" />
          </mxGeometry>
        </mxCell>
        <mxCell id="7zYu00_vVBkscI9TaZuZ-98" value="raboti" style="shape=rhombus;perimeter=rhombusPerimeter;whiteSpace=wrap;html=1;align=center;strokeColor=#0F8B8D;fontColor=#143642;fillColor=#FAE5C7;fontStyle=1" vertex="1" parent="1">
          <mxGeometry x="560" y="5" width="80" height="50" as="geometry" />
        </mxCell>
        <mxCell id="7zYu00_vVBkscI9TaZuZ-99" value="" style="endArrow=none;html=1;rounded=0;strokeColor=#A8201A;fontColor=#143642;fillColor=#FAE5C7;exitX=1;exitY=0.5;exitDx=0;exitDy=0;entryX=0;entryY=0.5;entryDx=0;entryDy=0;fontStyle=1" edge="1" parent="1" source="7zYu00_vVBkscI9TaZuZ-65" target="7zYu00_vVBkscI9TaZuZ-98">
          <mxGeometry width="50" height="50" relative="1" as="geometry">
            <mxPoint x="560" y="-10" as="sourcePoint" />
            <mxPoint x="610" y="-60" as="targetPoint" />
          </mxGeometry>
        </mxCell>
        <mxCell id="7zYu00_vVBkscI9TaZuZ-100" value="" style="endArrow=none;html=1;rounded=0;strokeColor=#A8201A;fontColor=#143642;fillColor=#FAE5C7;exitX=1;exitY=0.5;exitDx=0;exitDy=0;entryX=0;entryY=0.5;entryDx=0;entryDy=0;fontStyle=1" edge="1" parent="1" source="7zYu00_vVBkscI9TaZuZ-98" target="7zYu00_vVBkscI9TaZuZ-92">
          <mxGeometry width="50" height="50" relative="1" as="geometry">
            <mxPoint x="435" y="30" as="sourcePoint" />
            <mxPoint x="580" y="35" as="targetPoint" />
          </mxGeometry>
        </mxCell>
        <mxCell id="7zYu00_vVBkscI9TaZuZ-101" value="N" style="text;html=1;align=center;verticalAlign=middle;whiteSpace=wrap;rounded=0;fontColor=#143642;fontStyle=1" vertex="1" parent="1">
          <mxGeometry x="520" width="60" height="30" as="geometry" />
        </mxCell>
        <mxCell id="7zYu00_vVBkscI9TaZuZ-102" value="M" style="text;html=1;align=center;verticalAlign=middle;whiteSpace=wrap;rounded=0;fontColor=#143642;fontStyle=1" vertex="1" parent="1">
          <mxGeometry x="630" width="60" height="30" as="geometry" />
        </mxCell>
        <mxCell id="7zYu00_vVBkscI9TaZuZ-103" value="izrabotuva" style="shape=rhombus;double=1;perimeter=rhombusPerimeter;whiteSpace=wrap;html=1;align=center;strokeColor=#0F8B8D;fontColor=#143642;fillColor=#FAE5C7;fontStyle=1" vertex="1" parent="1">
          <mxGeometry x="470" y="215" width="100" height="50" as="geometry" />
        </mxCell>
        <mxCell id="7zYu00_vVBkscI9TaZuZ-104" value="Dokumentacija" style="whiteSpace=wrap;html=1;align=center;strokeColor=#0F8B8D;fontColor=#143642;fillColor=none;fontStyle=1" vertex="1" parent="1">
          <mxGeometry x="615" y="212.5" width="110" height="55" as="geometry" />
        </mxCell>
        <mxCell id="7zYu00_vVBkscI9TaZuZ-106" value="ima" style="shape=rhombus;double=1;perimeter=rhombusPerimeter;whiteSpace=wrap;html=1;align=center;strokeColor=#0F8B8D;fontColor=#143642;fillColor=#FAE5C7;fontStyle=1" vertex="1" parent="1">
          <mxGeometry x="780" y="130" width="100" height="50" as="geometry" />
        </mxCell>
        <mxCell id="7zYu00_vVBkscI9TaZuZ-107" value="" style="endArrow=none;html=1;rounded=0;strokeColor=#A8201A;fontColor=#143642;fillColor=#FAE5C7;entryX=0.5;entryY=1;entryDx=0;entryDy=0;exitX=0.5;exitY=0;exitDx=0;exitDy=0;fontStyle=1" edge="1" parent="1" source="7zYu00_vVBkscI9TaZuZ-106" target="7zYu00_vVBkscI9TaZuZ-92">
          <mxGeometry width="50" height="50" relative="1" as="geometry">
            <mxPoint x="560" y="180" as="sourcePoint" />
            <mxPoint x="610" y="130" as="targetPoint" />
          </mxGeometry>
        </mxCell>
        <mxCell id="7zYu00_vVBkscI9TaZuZ-108" value="" style="endArrow=none;html=1;rounded=0;strokeColor=#A8201A;fontColor=#143642;fillColor=#FAE5C7;entryX=0;entryY=1;entryDx=0;entryDy=0;exitX=1;exitY=0.5;exitDx=0;exitDy=0;shape=link;fontStyle=1" edge="1" parent="1" source="7zYu00_vVBkscI9TaZuZ-104" target="7zYu00_vVBkscI9TaZuZ-106">
          <mxGeometry width="50" height="50" relative="1" as="geometry">
            <mxPoint x="820" y="140" as="sourcePoint" />
            <mxPoint x="860" y="60" as="targetPoint" />
          </mxGeometry>
        </mxCell>
        <mxCell id="7zYu00_vVBkscI9TaZuZ-109" value="N" style="text;html=1;align=center;verticalAlign=middle;whiteSpace=wrap;rounded=0;fontColor=#143642;fontStyle=1" vertex="1" parent="1">
          <mxGeometry x="750" y="160" width="60" height="30" as="geometry" />
        </mxCell>
        <mxCell id="7zYu00_vVBkscI9TaZuZ-110" value="1" style="text;html=1;align=center;verticalAlign=middle;whiteSpace=wrap;rounded=0;fontColor=#143642;fontStyle=1" vertex="1" parent="1">
          <mxGeometry x="770" y="110" width="60" height="30" as="geometry" />
        </mxCell>
        <mxCell id="7zYu00_vVBkscI9TaZuZ-111" value="ima" style="shape=rhombus;perimeter=rhombusPerimeter;whiteSpace=wrap;html=1;align=center;strokeColor=#0F8B8D;fontColor=#143642;fillColor=#FAE5C7;fontStyle=1" vertex="1" parent="1">
          <mxGeometry x="560" y="-175" width="80" height="50" as="geometry" />
        </mxCell>
        <mxCell id="7zYu00_vVBkscI9TaZuZ-112" value="" style="endArrow=none;html=1;rounded=0;strokeColor=#A8201A;fontColor=#143642;fillColor=#FAE5C7;exitX=1;exitY=0.75;exitDx=0;exitDy=0;entryX=0;entryY=0;entryDx=0;entryDy=0;fontStyle=1;shape=link;" edge="1" parent="1" source="7zYu00_vVBkscI9TaZuZ-85" target="7zYu00_vVBkscI9TaZuZ-111">
          <mxGeometry width="50" height="50" relative="1" as="geometry">
            <mxPoint x="590" y="-30" as="sourcePoint" />
            <mxPoint x="640" y="-80" as="targetPoint" />
          </mxGeometry>
        </mxCell>
        <mxCell id="7zYu00_vVBkscI9TaZuZ-113" value="" style="endArrow=none;html=1;rounded=0;strokeColor=#A8201A;fontColor=#143642;fillColor=#FAE5C7;exitX=1;exitY=1;exitDx=0;exitDy=0;entryX=0.25;entryY=0;entryDx=0;entryDy=0;fontStyle=1;shape=link;" edge="1" parent="1" source="7zYu00_vVBkscI9TaZuZ-111" target="7zYu00_vVBkscI9TaZuZ-92">
          <mxGeometry width="50" height="50" relative="1" as="geometry">
            <mxPoint x="470" y="-200" as="sourcePoint" />
            <mxPoint x="570" y="-140" as="targetPoint" />
          </mxGeometry>
        </mxCell>
        <mxCell id="7zYu00_vVBkscI9TaZuZ-114" value="N" style="text;html=1;align=center;verticalAlign=middle;whiteSpace=wrap;rounded=0;fontColor=#143642;fontStyle=1" vertex="1" parent="1">
          <mxGeometry x="630" y="-155" width="60" height="30" as="geometry" />
        </mxCell>
        <mxCell id="7zYu00_vVBkscI9TaZuZ-115" value="M" style="text;html=1;align=center;verticalAlign=middle;whiteSpace=wrap;rounded=0;fontColor=#143642;fontStyle=1" vertex="1" parent="1">
          <mxGeometry x="540" y="-205" width="60" height="30" as="geometry" />
        </mxCell>
        <mxCell id="7zYu00_vVBkscI9TaZuZ-116" value="TIP" style="whiteSpace=wrap;html=1;align=center;strokeColor=#0F8B8D;fontColor=#143642;fillColor=#FAE5C7;fontStyle=1" vertex="1" parent="1">
          <mxGeometry x="590" y="-400" width="100" height="40" as="geometry" />
        </mxCell>
        <mxCell id="7zYu00_vVBkscI9TaZuZ-117" value="pripagja" style="shape=rhombus;perimeter=rhombusPerimeter;whiteSpace=wrap;html=1;align=center;strokeColor=#0F8B8D;fontColor=#143642;fillColor=#FAE5C7;fontStyle=1" vertex="1" parent="1">
          <mxGeometry x="485" y="-320" width="70" height="40" as="geometry" />
        </mxCell>
        <mxCell id="7zYu00_vVBkscI9TaZuZ-118" value="" style="endArrow=none;html=1;rounded=0;strokeColor=#A8201A;fontColor=#143642;fillColor=#FAE5C7;entryX=0;entryY=1;entryDx=0;entryDy=0;exitX=0.5;exitY=0;exitDx=0;exitDy=0;shape=link;" edge="1" parent="1" source="7zYu00_vVBkscI9TaZuZ-85" target="7zYu00_vVBkscI9TaZuZ-117">
          <mxGeometry width="50" height="50" relative="1" as="geometry">
            <mxPoint x="410" y="-243" as="sourcePoint" />
            <mxPoint x="610" y="-250" as="targetPoint" />
          </mxGeometry>
        </mxCell>
        <mxCell id="7zYu00_vVBkscI9TaZuZ-119" value="" style="endArrow=none;html=1;rounded=0;strokeColor=#A8201A;fontColor=#143642;fillColor=#FAE5C7;entryX=0.25;entryY=1;entryDx=0;entryDy=0;exitX=1;exitY=0;exitDx=0;exitDy=0;" edge="1" parent="1" source="7zYu00_vVBkscI9TaZuZ-117" target="7zYu00_vVBkscI9TaZuZ-116">
          <mxGeometry width="50" height="50" relative="1" as="geometry">
            <mxPoint x="420" y="-230" as="sourcePoint" />
            <mxPoint x="513" y="-280" as="targetPoint" />
          </mxGeometry>
        </mxCell>
        <mxCell id="7zYu00_vVBkscI9TaZuZ-120" value="&lt;b&gt;1&lt;/b&gt;" style="text;html=1;align=center;verticalAlign=middle;whiteSpace=wrap;rounded=0;fontColor=#143642;" vertex="1" parent="1">
          <mxGeometry x="510" y="-350" width="60" height="30" as="geometry" />
        </mxCell>
        <mxCell id="7zYu00_vVBkscI9TaZuZ-121" value="M" style="text;html=1;align=center;verticalAlign=middle;whiteSpace=wrap;rounded=0;fontColor=#143642;fontStyle=1" vertex="1" parent="1">
          <mxGeometry x="430" y="-310" width="60" height="30" as="geometry" />
        </mxCell>
        <mxCell id="7zYu00_vVBkscI9TaZuZ-123" style="edgeStyle=orthogonalEdgeStyle;rounded=0;orthogonalLoop=1;jettySize=auto;html=1;exitX=1;exitY=0;exitDx=0;exitDy=0;entryX=0.25;entryY=0;entryDx=0;entryDy=0;strokeColor=#A8201A;fontColor=#143642;fillColor=#FAE5C7;endArrow=none;endFill=0;" edge="1" parent="1" source="7zYu00_vVBkscI9TaZuZ-122" target="7zYu00_vVBkscI9TaZuZ-85">
          <mxGeometry relative="1" as="geometry" />
        </mxCell>
        <mxCell id="7zYu00_vVBkscI9TaZuZ-124" style="edgeStyle=orthogonalEdgeStyle;rounded=0;orthogonalLoop=1;jettySize=auto;html=1;entryX=0.25;entryY=1;entryDx=0;entryDy=0;strokeColor=#A8201A;fontColor=#143642;fillColor=#FAE5C7;endArrow=none;endFill=0;" edge="1" parent="1" source="7zYu00_vVBkscI9TaZuZ-122" target="7zYu00_vVBkscI9TaZuZ-85">
          <mxGeometry relative="1" as="geometry" />
        </mxCell>
        <mxCell id="7zYu00_vVBkscI9TaZuZ-122" value="kompatabilnost" style="shape=rhombus;perimeter=rhombusPerimeter;whiteSpace=wrap;html=1;align=center;strokeColor=#0F8B8D;fontColor=#143642;fillColor=#FAE5C7;fontStyle=1" vertex="1" parent="1">
          <mxGeometry x="130" y="-255" width="120" height="50" as="geometry" />
        </mxCell>
        <mxCell id="7zYu00_vVBkscI9TaZuZ-125" value="M" style="text;html=1;align=center;verticalAlign=middle;whiteSpace=wrap;rounded=0;fontColor=#143642;fontStyle=1" vertex="1" parent="1">
          <mxGeometry x="230" y="-280" width="60" height="30" as="geometry" />
        </mxCell>
        <mxCell id="7zYu00_vVBkscI9TaZuZ-126" value="N" style="text;html=1;align=center;verticalAlign=middle;whiteSpace=wrap;rounded=0;fontColor=#143642;fontStyle=1" vertex="1" parent="1">
          <mxGeometry x="230" y="-220" width="60" height="30" as="geometry" />
        </mxCell>
        <mxCell id="7zYu00_vVBkscI9TaZuZ-127" value="Obem" style="whiteSpace=wrap;html=1;align=center;strokeColor=#0F8B8D;fontColor=#143642;fillColor=#FAE5C7;fontStyle=1" vertex="1" parent="1">
          <mxGeometry x="800" y="-260" width="100" height="40" as="geometry" />
        </mxCell>
        <mxCell id="7zYu00_vVBkscI9TaZuZ-129" value="cena" style="shape=rhombus;perimeter=rhombusPerimeter;whiteSpace=wrap;html=1;align=center;strokeColor=#0F8B8D;fontColor=#143642;fillColor=#FAE5C7;fontStyle=1" vertex="1" parent="1">
          <mxGeometry x="730" y="-350" width="70" height="40" as="geometry" />
        </mxCell>
        <mxCell id="7zYu00_vVBkscI9TaZuZ-130" value="ima" style="shape=rhombus;perimeter=rhombusPerimeter;whiteSpace=wrap;html=1;align=center;strokeColor=#0F8B8D;fontColor=#143642;fillColor=#FAE5C7;fontStyle=1" vertex="1" parent="1">
          <mxGeometry x="815" y="-140" width="70" height="40" as="geometry" />
        </mxCell>
        <mxCell id="7zYu00_vVBkscI9TaZuZ-131" value="" style="endArrow=none;html=1;rounded=0;strokeColor=#A8201A;fontColor=#143642;fillColor=#FAE5C7;entryX=1;entryY=0.75;entryDx=0;entryDy=0;exitX=0;exitY=0;exitDx=0;exitDy=0;shape=link;" edge="1" parent="1" source="7zYu00_vVBkscI9TaZuZ-129" target="7zYu00_vVBkscI9TaZuZ-116">
          <mxGeometry width="50" height="50" relative="1" as="geometry">
            <mxPoint x="520" y="-160" as="sourcePoint" />
            <mxPoint x="570" y="-210" as="targetPoint" />
          </mxGeometry>
        </mxCell>
        <mxCell id="7zYu00_vVBkscI9TaZuZ-132" value="" style="endArrow=none;html=1;rounded=0;strokeColor=#A8201A;fontColor=#143642;fillColor=#FAE5C7;entryX=0.25;entryY=0;entryDx=0;entryDy=0;exitX=1;exitY=1;exitDx=0;exitDy=0;shape=link;" edge="1" parent="1" source="7zYu00_vVBkscI9TaZuZ-129" target="7zYu00_vVBkscI9TaZuZ-127">
          <mxGeometry width="50" height="50" relative="1" as="geometry">
            <mxPoint x="758" y="-330" as="sourcePoint" />
            <mxPoint x="700" y="-360" as="targetPoint" />
          </mxGeometry>
        </mxCell>
        <mxCell id="7zYu00_vVBkscI9TaZuZ-133" value="" style="endArrow=none;html=1;rounded=0;strokeColor=#A8201A;fontColor=#143642;fillColor=#FAE5C7;entryX=0.5;entryY=1;entryDx=0;entryDy=0;exitX=0.5;exitY=0;exitDx=0;exitDy=0;" edge="1" parent="1" source="7zYu00_vVBkscI9TaZuZ-130" target="7zYu00_vVBkscI9TaZuZ-127">
          <mxGeometry width="50" height="50" relative="1" as="geometry">
            <mxPoint x="850" y="-150" as="sourcePoint" />
            <mxPoint x="835" y="-250" as="targetPoint" />
          </mxGeometry>
        </mxCell>
        <mxCell id="7zYu00_vVBkscI9TaZuZ-134" value="" style="endArrow=none;html=1;rounded=0;strokeColor=#A8201A;fontColor=#143642;fillColor=#FAE5C7;exitX=0.5;exitY=1;exitDx=0;exitDy=0;shape=link;" edge="1" parent="1" source="7zYu00_vVBkscI9TaZuZ-130" target="7zYu00_vVBkscI9TaZuZ-92">
          <mxGeometry width="50" height="50" relative="1" as="geometry">
            <mxPoint x="860" y="-130" as="sourcePoint" />
            <mxPoint x="860" y="-210" as="targetPoint" />
          </mxGeometry>
        </mxCell>
        <mxCell id="7zYu00_vVBkscI9TaZuZ-136" value="M" style="text;html=1;align=center;verticalAlign=middle;whiteSpace=wrap;rounded=0;fontColor=#143642;fontStyle=1" vertex="1" parent="1">
          <mxGeometry x="720" y="-380" width="60" height="30" as="geometry" />
        </mxCell>
        <mxCell id="7zYu00_vVBkscI9TaZuZ-137" value="N" style="text;html=1;align=center;verticalAlign=middle;whiteSpace=wrap;rounded=0;fontColor=#143642;fontStyle=1" vertex="1" parent="1">
          <mxGeometry x="780" y="-330" width="60" height="30" as="geometry" />
        </mxCell>
        <mxCell id="7zYu00_vVBkscI9TaZuZ-138" value="&lt;b&gt;1&lt;/b&gt;" style="text;html=1;align=center;verticalAlign=middle;whiteSpace=wrap;rounded=0;fontColor=#143642;" vertex="1" parent="1">
          <mxGeometry x="850" y="-155" width="60" height="30" as="geometry" />
        </mxCell>
        <mxCell id="7zYu00_vVBkscI9TaZuZ-139" value="N" style="text;html=1;align=center;verticalAlign=middle;whiteSpace=wrap;rounded=0;fontColor=#143642;fontStyle=1" vertex="1" parent="1">
          <mxGeometry x="850" y="-105" width="60" height="30" as="geometry" />
        </mxCell>
      </root>
    </mxGraphModel>
  </diagram>
  <diagram id="qV64wtjBYjptnB31Dpbm" name="Page-3">
    <mxGraphModel dx="3800" dy="2238" grid="1" gridSize="10" guides="1" tooltips="1" connect="1" arrows="1" fold="1" page="1" pageScale="1" pageWidth="850" pageHeight="1100" math="0" shadow="0">
      <root>
        <mxCell id="0" />
        <mxCell id="1" parent="0" />
        <mxCell id="ZVKCJuTZ52yj1syS9qNp-1" value="Korisnik" style="rounded=0;whiteSpace=wrap;html=1;labelBackgroundColor=none;fillColor=#FAE5C7;strokeColor=#0F8B8D;fontColor=#143642;fontStyle=1" parent="1" vertex="1">
          <mxGeometry x="160" y="100" width="120" height="60" as="geometry" />
        </mxCell>
        <mxCell id="ZVKCJuTZ52yj1syS9qNp-2" value="ime" style="ellipse;whiteSpace=wrap;html=1;align=center;strokeColor=#0F8B8D;fontColor=#143642;fillColor=#FAE5C7;labelBackgroundColor=none;fontStyle=1" parent="1" vertex="1">
          <mxGeometry x="-50" y="20" width="100" height="40" as="geometry" />
        </mxCell>
        <mxCell id="ZVKCJuTZ52yj1syS9qNp-3" value="prezime" style="ellipse;whiteSpace=wrap;html=1;align=center;strokeColor=#0F8B8D;fontColor=#143642;fillColor=#FAE5C7;labelBackgroundColor=none;fontStyle=1" parent="1" vertex="1">
          <mxGeometry x="-50" y="70" width="100" height="40" as="geometry" />
        </mxCell>
        <mxCell id="ZVKCJuTZ52yj1syS9qNp-4" value="&lt;span&gt;&lt;u&gt;korisnickoIme&lt;/u&gt;&lt;/span&gt;" style="ellipse;whiteSpace=wrap;html=1;align=center;strokeColor=#0F8B8D;fontColor=#143642;fillColor=#FAE5C7;labelBackgroundColor=none;fontStyle=1" parent="1" vertex="1">
          <mxGeometry x="40" y="-10" width="100" height="40" as="geometry" />
        </mxCell>
        <mxCell id="ZVKCJuTZ52yj1syS9qNp-5" value="email" style="ellipse;whiteSpace=wrap;html=1;align=center;strokeColor=#0F8B8D;fontColor=#143642;fillColor=#FAE5C7;labelBackgroundColor=none;fontStyle=1" parent="1" vertex="1">
          <mxGeometry x="160" y="-10" width="100" height="40" as="geometry" />
        </mxCell>
        <mxCell id="ZVKCJuTZ52yj1syS9qNp-6" value="birthday" style="ellipse;whiteSpace=wrap;html=1;align=center;strokeColor=#0F8B8D;fontColor=#143642;fillColor=#FAE5C7;labelBackgroundColor=none;fontStyle=1" parent="1" vertex="1">
          <mxGeometry x="280" y="30" width="100" height="40" as="geometry" />
        </mxCell>
        <mxCell id="ZVKCJuTZ52yj1syS9qNp-7" value="datumReg" style="ellipse;whiteSpace=wrap;html=1;align=center;strokeColor=#0F8B8D;fontColor=#143642;fillColor=#FAE5C7;labelBackgroundColor=none;fontStyle=1" parent="1" vertex="1">
          <mxGeometry x="-50" y="120" width="100" height="40" as="geometry" />
        </mxCell>
        <mxCell id="ZVKCJuTZ52yj1syS9qNp-8" value="pol" style="ellipse;whiteSpace=wrap;html=1;align=center;strokeColor=#0F8B8D;fontColor=#143642;fillColor=#FAE5C7;labelBackgroundColor=none;fontStyle=1" parent="1" vertex="1">
          <mxGeometry x="270" y="-10" width="100" height="40" as="geometry" />
        </mxCell>
        <mxCell id="-deDmXjM0P6Qr-qPnH5A-1" value="" style="endArrow=none;html=1;rounded=0;exitX=1;exitY=0.5;exitDx=0;exitDy=0;entryX=0;entryY=0.75;entryDx=0;entryDy=0;labelBackgroundColor=none;strokeColor=#A8201A;fontColor=default;fontStyle=1" parent="1" source="ZVKCJuTZ52yj1syS9qNp-7" target="ZVKCJuTZ52yj1syS9qNp-1" edge="1">
          <mxGeometry width="50" height="50" relative="1" as="geometry">
            <mxPoint x="330" y="270" as="sourcePoint" />
            <mxPoint x="380" y="220" as="targetPoint" />
          </mxGeometry>
        </mxCell>
        <mxCell id="-deDmXjM0P6Qr-qPnH5A-2" value="" style="endArrow=none;html=1;rounded=0;exitX=1;exitY=0.5;exitDx=0;exitDy=0;entryX=0;entryY=0.5;entryDx=0;entryDy=0;labelBackgroundColor=none;strokeColor=#A8201A;fontColor=default;fontStyle=1" parent="1" source="ZVKCJuTZ52yj1syS9qNp-3" target="ZVKCJuTZ52yj1syS9qNp-1" edge="1">
          <mxGeometry width="50" height="50" relative="1" as="geometry">
            <mxPoint x="70" y="190" as="sourcePoint" />
            <mxPoint x="100" y="170" as="targetPoint" />
          </mxGeometry>
        </mxCell>
        <mxCell id="-deDmXjM0P6Qr-qPnH5A-3" value="" style="endArrow=none;html=1;rounded=0;exitX=1;exitY=1;exitDx=0;exitDy=0;entryX=0;entryY=0.25;entryDx=0;entryDy=0;labelBackgroundColor=none;strokeColor=#A8201A;fontColor=default;fontStyle=1" parent="1" source="ZVKCJuTZ52yj1syS9qNp-2" target="ZVKCJuTZ52yj1syS9qNp-1" edge="1">
          <mxGeometry width="50" height="50" relative="1" as="geometry">
            <mxPoint x="60" y="140" as="sourcePoint" />
            <mxPoint x="100" y="140" as="targetPoint" />
          </mxGeometry>
        </mxCell>
        <mxCell id="-deDmXjM0P6Qr-qPnH5A-4" value="" style="endArrow=none;html=1;rounded=0;exitX=0.408;exitY=0.955;exitDx=0;exitDy=0;entryX=0.25;entryY=0;entryDx=0;entryDy=0;labelBackgroundColor=none;strokeColor=#A8201A;fontColor=default;exitPerimeter=0;fontStyle=1" parent="1" source="ZVKCJuTZ52yj1syS9qNp-4" target="ZVKCJuTZ52yj1syS9qNp-1" edge="1">
          <mxGeometry width="50" height="50" relative="1" as="geometry">
            <mxPoint x="55" y="94" as="sourcePoint" />
            <mxPoint x="100" y="125" as="targetPoint" />
          </mxGeometry>
        </mxCell>
        <mxCell id="-deDmXjM0P6Qr-qPnH5A-5" value="" style="endArrow=none;html=1;rounded=0;exitX=0;exitY=1;exitDx=0;exitDy=0;entryX=0.5;entryY=0;entryDx=0;entryDy=0;labelBackgroundColor=none;strokeColor=#A8201A;fontColor=default;fontStyle=1" parent="1" source="ZVKCJuTZ52yj1syS9qNp-5" target="ZVKCJuTZ52yj1syS9qNp-1" edge="1">
          <mxGeometry width="50" height="50" relative="1" as="geometry">
            <mxPoint x="111" y="68" as="sourcePoint" />
            <mxPoint x="130" y="110" as="targetPoint" />
          </mxGeometry>
        </mxCell>
        <mxCell id="-deDmXjM0P6Qr-qPnH5A-6" value="" style="endArrow=none;html=1;rounded=0;exitX=0;exitY=1;exitDx=0;exitDy=0;entryX=1;entryY=0.25;entryDx=0;entryDy=0;labelBackgroundColor=none;strokeColor=#A8201A;fontColor=default;fontStyle=1" parent="1" source="ZVKCJuTZ52yj1syS9qNp-6" target="ZVKCJuTZ52yj1syS9qNp-1" edge="1">
          <mxGeometry width="50" height="50" relative="1" as="geometry">
            <mxPoint x="176" y="74" as="sourcePoint" />
            <mxPoint x="160" y="110" as="targetPoint" />
          </mxGeometry>
        </mxCell>
        <mxCell id="-deDmXjM0P6Qr-qPnH5A-7" value="" style="endArrow=none;html=1;rounded=0;exitX=0;exitY=0.5;exitDx=0;exitDy=0;entryX=0.75;entryY=0;entryDx=0;entryDy=0;labelBackgroundColor=none;strokeColor=#A8201A;fontColor=default;fontStyle=1;" parent="1" source="ZVKCJuTZ52yj1syS9qNp-8" target="ZVKCJuTZ52yj1syS9qNp-1" edge="1">
          <mxGeometry width="50" height="50" relative="1" as="geometry">
            <mxPoint x="285" y="94" as="sourcePoint" />
            <mxPoint x="220" y="125" as="targetPoint" />
          </mxGeometry>
        </mxCell>
        <mxCell id="-deDmXjM0P6Qr-qPnH5A-8" value="Lista" style="rounded=0;whiteSpace=wrap;html=1;labelBackgroundColor=none;fillColor=#FAE5C7;strokeColor=#0F8B8D;fontColor=#143642;fontStyle=1" parent="1" vertex="1">
          <mxGeometry x="720" y="90" width="120" height="60" as="geometry" />
        </mxCell>
        <mxCell id="-deDmXjM0P6Qr-qPnH5A-9" value="datumKreiranje" style="ellipse;whiteSpace=wrap;html=1;align=center;strokeColor=#0F8B8D;fontColor=#143642;fillColor=#FAE5C7;labelBackgroundColor=none;fontStyle=1" parent="1" vertex="1">
          <mxGeometry x="790" y="10" width="100" height="40" as="geometry" />
        </mxCell>
        <mxCell id="-deDmXjM0P6Qr-qPnH5A-10" value="&lt;u&gt;ime&lt;/u&gt;" style="ellipse;whiteSpace=wrap;html=1;align=center;strokeColor=#0F8B8D;fontColor=#143642;fillColor=#FAE5C7;labelBackgroundColor=none;fontStyle=1" parent="1" vertex="1">
          <mxGeometry x="860" y="70" width="100" height="40" as="geometry" />
        </mxCell>
        <mxCell id="-deDmXjM0P6Qr-qPnH5A-11" value="kreira" style="shape=rhombus;perimeter=rhombusPerimeter;whiteSpace=wrap;html=1;align=center;strokeColor=#0F8B8D;fontColor=#143642;fillColor=#FAE5C7;fontStyle=1;labelBackgroundColor=none;" parent="1" vertex="1">
          <mxGeometry x="470" y="70" width="90" height="50" as="geometry" />
        </mxCell>
        <mxCell id="-deDmXjM0P6Qr-qPnH5A-12" value="spodelvua" style="shape=rhombus;perimeter=rhombusPerimeter;whiteSpace=wrap;html=1;align=center;strokeColor=#0F8B8D;fontColor=#143642;fillColor=#FAE5C7;fontStyle=1;labelBackgroundColor=none;" parent="1" vertex="1">
          <mxGeometry x="470" y="150" width="90" height="50" as="geometry" />
        </mxCell>
        <mxCell id="-deDmXjM0P6Qr-qPnH5A-13" value="" style="endArrow=none;html=1;rounded=0;strokeColor=#A8201A;fontColor=default;fillColor=#FAE5C7;exitX=1;exitY=0.75;exitDx=0;exitDy=0;entryX=0;entryY=0.5;entryDx=0;entryDy=0;fontStyle=1;labelBackgroundColor=none;" parent="1" source="ZVKCJuTZ52yj1syS9qNp-1" target="-deDmXjM0P6Qr-qPnH5A-12" edge="1">
          <mxGeometry width="50" height="50" relative="1" as="geometry">
            <mxPoint x="340" y="270" as="sourcePoint" />
            <mxPoint x="390" y="220" as="targetPoint" />
          </mxGeometry>
        </mxCell>
        <mxCell id="-deDmXjM0P6Qr-qPnH5A-14" value="" style="endArrow=none;html=1;rounded=0;strokeColor=#A8201A;fontColor=default;fillColor=#FAE5C7;exitX=1;exitY=0.5;exitDx=0;exitDy=0;entryX=0;entryY=0.5;entryDx=0;entryDy=0;fontStyle=1;labelBackgroundColor=none;" parent="1" source="ZVKCJuTZ52yj1syS9qNp-1" target="-deDmXjM0P6Qr-qPnH5A-11" edge="1">
          <mxGeometry width="50" height="50" relative="1" as="geometry">
            <mxPoint x="220" y="155" as="sourcePoint" />
            <mxPoint x="480" y="185" as="targetPoint" />
          </mxGeometry>
        </mxCell>
        <mxCell id="-deDmXjM0P6Qr-qPnH5A-15" value="" style="endArrow=none;html=1;rounded=0;strokeColor=#A8201A;fontColor=default;fillColor=#FAE5C7;exitX=1;exitY=0.5;exitDx=0;exitDy=0;entryX=0;entryY=0.397;entryDx=0;entryDy=0;entryPerimeter=0;fontStyle=1;shape=link;labelBackgroundColor=none;" parent="1" source="-deDmXjM0P6Qr-qPnH5A-11" target="-deDmXjM0P6Qr-qPnH5A-8" edge="1">
          <mxGeometry width="50" height="50" relative="1" as="geometry">
            <mxPoint x="220" y="140" as="sourcePoint" />
            <mxPoint x="480" y="105" as="targetPoint" />
          </mxGeometry>
        </mxCell>
        <mxCell id="-deDmXjM0P6Qr-qPnH5A-16" value="" style="endArrow=none;html=1;rounded=0;strokeColor=#A8201A;fontColor=default;fillColor=#FAE5C7;exitX=1;exitY=0.5;exitDx=0;exitDy=0;entryX=0;entryY=0.75;entryDx=0;entryDy=0;fontStyle=1;labelBackgroundColor=none;" parent="1" source="-deDmXjM0P6Qr-qPnH5A-12" target="-deDmXjM0P6Qr-qPnH5A-8" edge="1">
          <mxGeometry width="50" height="50" relative="1" as="geometry">
            <mxPoint x="570" y="105" as="sourcePoint" />
            <mxPoint x="730" y="134" as="targetPoint" />
          </mxGeometry>
        </mxCell>
        <mxCell id="-deDmXjM0P6Qr-qPnH5A-17" value="datumSpod" style="ellipse;whiteSpace=wrap;html=1;align=center;strokeColor=#0F8B8D;fontColor=#143642;fillColor=#FAE5C7;labelBackgroundColor=none;fontStyle=1" parent="1" vertex="1">
          <mxGeometry x="390" y="220" width="100" height="40" as="geometry" />
        </mxCell>
        <mxCell id="-deDmXjM0P6Qr-qPnH5A-18" value="komentar" style="ellipse;whiteSpace=wrap;html=1;align=center;strokeColor=#0F8B8D;fontColor=#143642;fillColor=#FAE5C7;labelBackgroundColor=none;fontStyle=1" parent="1" vertex="1">
          <mxGeometry x="530" y="220" width="100" height="40" as="geometry" />
        </mxCell>
        <mxCell id="-deDmXjM0P6Qr-qPnH5A-19" value="" style="endArrow=none;html=1;rounded=0;strokeColor=#A8201A;fontColor=default;fillColor=#FAE5C7;exitX=1;exitY=0;exitDx=0;exitDy=0;entryX=0;entryY=1;entryDx=0;entryDy=0;fontStyle=1;labelBackgroundColor=none;" parent="1" source="-deDmXjM0P6Qr-qPnH5A-17" target="-deDmXjM0P6Qr-qPnH5A-12" edge="1">
          <mxGeometry width="50" height="50" relative="1" as="geometry">
            <mxPoint x="220" y="155" as="sourcePoint" />
            <mxPoint x="480" y="185" as="targetPoint" />
          </mxGeometry>
        </mxCell>
        <mxCell id="-deDmXjM0P6Qr-qPnH5A-20" value="" style="endArrow=none;html=1;rounded=0;strokeColor=#A8201A;fontColor=default;fillColor=#FAE5C7;exitX=0;exitY=0;exitDx=0;exitDy=0;entryX=1;entryY=1;entryDx=0;entryDy=0;fontStyle=1;labelBackgroundColor=none;" parent="1" source="-deDmXjM0P6Qr-qPnH5A-18" target="-deDmXjM0P6Qr-qPnH5A-12" edge="1">
          <mxGeometry width="50" height="50" relative="1" as="geometry">
            <mxPoint x="485" y="236" as="sourcePoint" />
            <mxPoint x="503" y="198" as="targetPoint" />
          </mxGeometry>
        </mxCell>
        <mxCell id="-deDmXjM0P6Qr-qPnH5A-21" value="1" style="text;html=1;align=center;verticalAlign=middle;whiteSpace=wrap;rounded=0;fontColor=#143642;fontStyle=1;labelBackgroundColor=none;" parent="1" vertex="1">
          <mxGeometry x="410" y="60" width="60" height="30" as="geometry" />
        </mxCell>
        <mxCell id="-deDmXjM0P6Qr-qPnH5A-22" value="N" style="text;html=1;align=center;verticalAlign=middle;whiteSpace=wrap;rounded=0;fontColor=#143642;fontStyle=1;labelBackgroundColor=none;" parent="1" vertex="1">
          <mxGeometry x="550" y="60" width="60" height="30" as="geometry" />
        </mxCell>
        <mxCell id="-deDmXjM0P6Qr-qPnH5A-23" value="N" style="text;html=1;align=center;verticalAlign=middle;whiteSpace=wrap;rounded=0;fontColor=#143642;fontStyle=1;labelBackgroundColor=none;" parent="1" vertex="1">
          <mxGeometry x="420" y="140" width="60" height="30" as="geometry" />
        </mxCell>
        <mxCell id="-deDmXjM0P6Qr-qPnH5A-24" value="M" style="text;html=1;align=center;verticalAlign=middle;whiteSpace=wrap;rounded=0;fontColor=#143642;fontStyle=1;labelBackgroundColor=none;" parent="1" vertex="1">
          <mxGeometry x="540" y="140" width="60" height="30" as="geometry" />
        </mxCell>
        <mxCell id="-deDmXjM0P6Qr-qPnH5A-25" value="" style="endArrow=none;html=1;rounded=0;strokeColor=#A8201A;fontColor=default;fillColor=#FAE5C7;exitX=0.75;exitY=0;exitDx=0;exitDy=0;entryX=0.5;entryY=1;entryDx=0;entryDy=0;fontStyle=1;labelBackgroundColor=none;" parent="1" source="-deDmXjM0P6Qr-qPnH5A-8" target="-deDmXjM0P6Qr-qPnH5A-9" edge="1">
          <mxGeometry width="50" height="50" relative="1" as="geometry">
            <mxPoint x="700" y="350.86" as="sourcePoint" />
            <mxPoint x="934.6446609406726" y="210.00213562373085" as="targetPoint" />
          </mxGeometry>
        </mxCell>
        <mxCell id="-deDmXjM0P6Qr-qPnH5A-26" value="" style="endArrow=none;html=1;rounded=0;strokeColor=#A8201A;fontColor=default;fillColor=#FAE5C7;exitX=1;exitY=0.25;exitDx=0;exitDy=0;entryX=0;entryY=0.5;entryDx=0;entryDy=0;fontStyle=1;labelBackgroundColor=none;" parent="1" source="-deDmXjM0P6Qr-qPnH5A-8" target="-deDmXjM0P6Qr-qPnH5A-10" edge="1">
          <mxGeometry width="50" height="50" relative="1" as="geometry">
            <mxPoint x="760" y="100" as="sourcePoint" />
            <mxPoint x="815" y="54" as="targetPoint" />
          </mxGeometry>
        </mxCell>
        <mxCell id="-deDmXjM0P6Qr-qPnH5A-27" value="TuristickiMesta" style="rounded=0;whiteSpace=wrap;html=1;labelBackgroundColor=none;fillColor=#FAE5C7;strokeColor=#0F8B8D;fontColor=#143642;fontStyle=1" parent="1" vertex="1">
          <mxGeometry x="420" y="570" width="120" height="60" as="geometry" />
        </mxCell>
        <mxCell id="-deDmXjM0P6Qr-qPnH5A-28" value="&lt;span&gt;d&lt;/span&gt;" style="ellipse;whiteSpace=wrap;html=1;aspect=fixed;strokeColor=#0F8B8D;fontColor=#143642;fillColor=#FAE5C7;fontStyle=1;labelBackgroundColor=none;" parent="1" vertex="1">
          <mxGeometry x="460" y="680" width="40" height="40" as="geometry" />
        </mxCell>
        <mxCell id="-deDmXjM0P6Qr-qPnH5A-29" value="" style="endArrow=none;html=1;rounded=0;strokeColor=#A8201A;fontColor=default;fillColor=#FAE5C7;exitX=0.5;exitY=1;exitDx=0;exitDy=0;shape=link;fontStyle=1;labelBackgroundColor=none;" parent="1" source="-deDmXjM0P6Qr-qPnH5A-27" target="-deDmXjM0P6Qr-qPnH5A-28" edge="1">
          <mxGeometry width="50" height="50" relative="1" as="geometry">
            <mxPoint x="740" y="730" as="sourcePoint" />
            <mxPoint x="790" y="680" as="targetPoint" />
          </mxGeometry>
        </mxCell>
        <mxCell id="-deDmXjM0P6Qr-qPnH5A-30" value="Gradovi" style="rounded=0;whiteSpace=wrap;html=1;labelBackgroundColor=none;fillColor=#FAE5C7;strokeColor=#0F8B8D;fontColor=#143642;fontStyle=1" parent="1" vertex="1">
          <mxGeometry x="230" y="770" width="120" height="60" as="geometry" />
        </mxCell>
        <mxCell id="-deDmXjM0P6Qr-qPnH5A-31" value="Objekti" style="rounded=0;whiteSpace=wrap;html=1;labelBackgroundColor=none;fillColor=#FAE5C7;strokeColor=#0F8B8D;fontColor=#143642;fontStyle=1" parent="1" vertex="1">
          <mxGeometry x="610" y="770" width="120" height="60" as="geometry" />
        </mxCell>
        <mxCell id="-deDmXjM0P6Qr-qPnH5A-32" value="&lt;u&gt;ime&lt;/u&gt;" style="ellipse;whiteSpace=wrap;html=1;align=center;strokeColor=#0F8B8D;fontColor=#143642;fillColor=#FAE5C7;fontStyle=1;labelBackgroundColor=none;" parent="1" vertex="1">
          <mxGeometry x="610" y="870" width="100" height="40" as="geometry" />
        </mxCell>
        <mxCell id="-deDmXjM0P6Qr-qPnH5A-33" value="geoSirina" style="ellipse;whiteSpace=wrap;html=1;align=center;strokeColor=#0F8B8D;fontColor=#143642;fillColor=#FAE5C7;fontStyle=1;labelBackgroundColor=none;" parent="1" vertex="1">
          <mxGeometry x="980" y="850" width="100" height="40" as="geometry" />
        </mxCell>
        <mxCell id="-deDmXjM0P6Qr-qPnH5A-34" value="adresa" style="ellipse;whiteSpace=wrap;html=1;align=center;strokeColor=#0F8B8D;fontColor=#143642;fillColor=#FAE5C7;fontStyle=1;labelBackgroundColor=none;" parent="1" vertex="1">
          <mxGeometry x="730" y="850" width="100" height="40" as="geometry" />
        </mxCell>
        <mxCell id="-deDmXjM0P6Qr-qPnH5A-35" value="geoDolzina" style="ellipse;whiteSpace=wrap;html=1;align=center;strokeColor=#0F8B8D;fontColor=#143642;fillColor=#FAE5C7;fontStyle=1;labelBackgroundColor=none;" parent="1" vertex="1">
          <mxGeometry x="980" y="800" width="100" height="40" as="geometry" />
        </mxCell>
        <mxCell id="-deDmXjM0P6Qr-qPnH5A-36" value="geoLokacija" style="ellipse;whiteSpace=wrap;html=1;align=center;strokeColor=#0F8B8D;fontColor=#143642;fillColor=#FAE5C7;fontStyle=1;labelBackgroundColor=none;" parent="1" vertex="1">
          <mxGeometry x="830" y="810" width="100" height="40" as="geometry" />
        </mxCell>
        <mxCell id="-deDmXjM0P6Qr-qPnH5A-38" value="" style="endArrow=none;html=1;rounded=0;strokeColor=#A8201A;fontColor=default;fillColor=#FAE5C7;exitX=0.25;exitY=1;exitDx=0;exitDy=0;fontStyle=1;labelBackgroundColor=none;" parent="1" source="-deDmXjM0P6Qr-qPnH5A-31" target="-deDmXjM0P6Qr-qPnH5A-32" edge="1">
          <mxGeometry width="50" height="50" relative="1" as="geometry">
            <mxPoint x="740" y="930" as="sourcePoint" />
            <mxPoint x="790" y="880" as="targetPoint" />
          </mxGeometry>
        </mxCell>
        <mxCell id="-deDmXjM0P6Qr-qPnH5A-39" value="" style="endArrow=none;html=1;rounded=0;strokeColor=#A8201A;fontColor=default;fillColor=#FAE5C7;exitX=0.75;exitY=1;exitDx=0;exitDy=0;entryX=0;entryY=0.5;entryDx=0;entryDy=0;fontStyle=1;labelBackgroundColor=none;" parent="1" source="-deDmXjM0P6Qr-qPnH5A-31" target="-deDmXjM0P6Qr-qPnH5A-34" edge="1">
          <mxGeometry width="50" height="50" relative="1" as="geometry">
            <mxPoint x="650" y="840" as="sourcePoint" />
            <mxPoint x="663" y="880" as="targetPoint" />
          </mxGeometry>
        </mxCell>
        <mxCell id="-deDmXjM0P6Qr-qPnH5A-40" value="" style="endArrow=none;html=1;rounded=0;strokeColor=#A8201A;fontColor=default;fillColor=#FAE5C7;exitX=1;exitY=0.75;exitDx=0;exitDy=0;entryX=0;entryY=0.5;entryDx=0;entryDy=0;fontStyle=1;labelBackgroundColor=none;" parent="1" source="-deDmXjM0P6Qr-qPnH5A-31" target="-deDmXjM0P6Qr-qPnH5A-36" edge="1">
          <mxGeometry width="50" height="50" relative="1" as="geometry">
            <mxPoint x="710" y="840" as="sourcePoint" />
            <mxPoint x="740" y="880" as="targetPoint" />
          </mxGeometry>
        </mxCell>
        <mxCell id="-deDmXjM0P6Qr-qPnH5A-41" value="" style="endArrow=none;html=1;rounded=0;strokeColor=#A8201A;fontColor=default;fillColor=#FAE5C7;exitX=1;exitY=0;exitDx=0;exitDy=0;entryX=0;entryY=0.5;entryDx=0;entryDy=0;fontStyle=1;labelBackgroundColor=none;" parent="1" source="-deDmXjM0P6Qr-qPnH5A-36" target="-deDmXjM0P6Qr-qPnH5A-35" edge="1">
          <mxGeometry width="50" height="50" relative="1" as="geometry">
            <mxPoint x="740" y="825" as="sourcePoint" />
            <mxPoint x="840" y="840" as="targetPoint" />
          </mxGeometry>
        </mxCell>
        <mxCell id="-deDmXjM0P6Qr-qPnH5A-42" value="" style="endArrow=none;html=1;rounded=0;strokeColor=#A8201A;fontColor=default;fillColor=#FAE5C7;exitX=1;exitY=1;exitDx=0;exitDy=0;entryX=0;entryY=0;entryDx=0;entryDy=0;fontStyle=1;labelBackgroundColor=none;" parent="1" source="-deDmXjM0P6Qr-qPnH5A-36" target="-deDmXjM0P6Qr-qPnH5A-33" edge="1">
          <mxGeometry width="50" height="50" relative="1" as="geometry">
            <mxPoint x="925" y="854" as="sourcePoint" />
            <mxPoint x="970" y="850" as="targetPoint" />
          </mxGeometry>
        </mxCell>
        <mxCell id="-deDmXjM0P6Qr-qPnH5A-44" value="" style="endArrow=none;html=1;rounded=0;strokeColor=#A8201A;fontColor=default;fillColor=#FAE5C7;exitX=0.5;exitY=0;exitDx=0;exitDy=0;entryX=0;entryY=0.5;entryDx=0;entryDy=0;fontStyle=1;labelBackgroundColor=none;" parent="1" source="-deDmXjM0P6Qr-qPnH5A-30" target="-deDmXjM0P6Qr-qPnH5A-28" edge="1">
          <mxGeometry width="50" height="50" relative="1" as="geometry">
            <mxPoint x="480" y="730" as="sourcePoint" />
            <mxPoint x="530" y="680" as="targetPoint" />
          </mxGeometry>
        </mxCell>
        <mxCell id="-deDmXjM0P6Qr-qPnH5A-45" value="" style="endArrow=none;html=1;rounded=0;strokeColor=#A8201A;fontColor=default;fillColor=#FAE5C7;exitX=0.5;exitY=0;exitDx=0;exitDy=0;entryX=1;entryY=0.5;entryDx=0;entryDy=0;fontStyle=1;labelBackgroundColor=none;" parent="1" source="-deDmXjM0P6Qr-qPnH5A-31" target="-deDmXjM0P6Qr-qPnH5A-28" edge="1">
          <mxGeometry width="50" height="50" relative="1" as="geometry">
            <mxPoint x="300" y="780" as="sourcePoint" />
            <mxPoint x="470" y="710" as="targetPoint" />
          </mxGeometry>
        </mxCell>
        <mxCell id="-deDmXjM0P6Qr-qPnH5A-46" value="&lt;u&gt;ime&lt;/u&gt;" style="ellipse;whiteSpace=wrap;html=1;align=center;strokeColor=#0F8B8D;fontColor=#143642;fillColor=#FAE5C7;fontStyle=1;labelBackgroundColor=none;" parent="1" vertex="1">
          <mxGeometry x="190" y="870" width="100" height="40" as="geometry" />
        </mxCell>
        <mxCell id="-deDmXjM0P6Qr-qPnH5A-47" value="drzava" style="ellipse;whiteSpace=wrap;html=1;align=center;strokeColor=#0F8B8D;fontColor=#143642;fillColor=#FAE5C7;fontStyle=1;labelBackgroundColor=none;" parent="1" vertex="1">
          <mxGeometry x="310" y="870" width="100" height="40" as="geometry" />
        </mxCell>
        <mxCell id="-deDmXjM0P6Qr-qPnH5A-48" value="" style="endArrow=none;html=1;rounded=0;strokeColor=#A8201A;fontColor=default;fillColor=#FAE5C7;exitX=0.5;exitY=0;exitDx=0;exitDy=0;entryX=0.25;entryY=1;entryDx=0;entryDy=0;fontStyle=1;labelBackgroundColor=none;" parent="1" source="-deDmXjM0P6Qr-qPnH5A-46" target="-deDmXjM0P6Qr-qPnH5A-30" edge="1">
          <mxGeometry width="50" height="50" relative="1" as="geometry">
            <mxPoint x="600" y="810" as="sourcePoint" />
            <mxPoint x="650" y="760" as="targetPoint" />
          </mxGeometry>
        </mxCell>
        <mxCell id="-deDmXjM0P6Qr-qPnH5A-49" value="" style="endArrow=none;html=1;rounded=0;strokeColor=#A8201A;fontColor=default;fillColor=#FAE5C7;entryX=0.75;entryY=1;entryDx=0;entryDy=0;fontStyle=1;labelBackgroundColor=none;" parent="1" source="-deDmXjM0P6Qr-qPnH5A-47" target="-deDmXjM0P6Qr-qPnH5A-30" edge="1">
          <mxGeometry width="50" height="50" relative="1" as="geometry">
            <mxPoint x="250" y="880" as="sourcePoint" />
            <mxPoint x="270" y="840" as="targetPoint" />
          </mxGeometry>
        </mxCell>
        <mxCell id="-deDmXjM0P6Qr-qPnH5A-50" value="pripagja" style="shape=rhombus;perimeter=rhombusPerimeter;whiteSpace=wrap;html=1;align=center;strokeColor=#0F8B8D;fontColor=#143642;fillColor=#FAE5C7;fontStyle=1;labelBackgroundColor=none;" parent="1" vertex="1">
          <mxGeometry x="440" y="775" width="100" height="50" as="geometry" />
        </mxCell>
        <mxCell id="-deDmXjM0P6Qr-qPnH5A-51" value="" style="endArrow=none;html=1;rounded=0;strokeColor=#A8201A;fontColor=default;fillColor=#FAE5C7;entryX=1;entryY=0.5;entryDx=0;entryDy=0;exitX=0;exitY=0.5;exitDx=0;exitDy=0;fontStyle=1;labelBackgroundColor=none;" parent="1" source="-deDmXjM0P6Qr-qPnH5A-50" target="-deDmXjM0P6Qr-qPnH5A-30" edge="1">
          <mxGeometry width="50" height="50" relative="1" as="geometry">
            <mxPoint x="357" y="881" as="sourcePoint" />
            <mxPoint x="330" y="840" as="targetPoint" />
          </mxGeometry>
        </mxCell>
        <mxCell id="-deDmXjM0P6Qr-qPnH5A-52" value="" style="endArrow=none;html=1;rounded=0;strokeColor=#A8201A;fontColor=default;fillColor=#FAE5C7;entryX=1;entryY=0.5;entryDx=0;entryDy=0;exitX=0;exitY=0.5;exitDx=0;exitDy=0;shape=link;fontStyle=1;labelBackgroundColor=none;" parent="1" source="-deDmXjM0P6Qr-qPnH5A-31" target="-deDmXjM0P6Qr-qPnH5A-50" edge="1">
          <mxGeometry width="50" height="50" relative="1" as="geometry">
            <mxPoint x="450" y="810" as="sourcePoint" />
            <mxPoint x="360" y="810" as="targetPoint" />
          </mxGeometry>
        </mxCell>
        <mxCell id="-deDmXjM0P6Qr-qPnH5A-53" value="N" style="text;html=1;align=center;verticalAlign=middle;whiteSpace=wrap;rounded=0;fontColor=#143642;fontStyle=1;labelBackgroundColor=none;" parent="1" vertex="1">
          <mxGeometry x="520" y="770" width="60" height="30" as="geometry" />
        </mxCell>
        <mxCell id="-deDmXjM0P6Qr-qPnH5A-54" value="1" style="text;html=1;align=center;verticalAlign=middle;whiteSpace=wrap;rounded=0;fontColor=#143642;fontStyle=1;labelBackgroundColor=none;" parent="1" vertex="1">
          <mxGeometry x="400" y="770" width="60" height="30" as="geometry" />
        </mxCell>
        <mxCell id="-deDmXjM0P6Qr-qPnH5A-56" style="edgeStyle=orthogonalEdgeStyle;rounded=0;orthogonalLoop=1;jettySize=auto;html=1;exitX=0.5;exitY=0;exitDx=0;exitDy=0;entryX=0;entryY=0.25;entryDx=0;entryDy=0;strokeColor=#A8201A;fontColor=default;fillColor=#FAE5C7;endArrow=none;endFill=0;labelBackgroundColor=none;fontStyle=1" parent="1" source="-deDmXjM0P6Qr-qPnH5A-55" target="-deDmXjM0P6Qr-qPnH5A-30" edge="1">
          <mxGeometry relative="1" as="geometry" />
        </mxCell>
        <mxCell id="-deDmXjM0P6Qr-qPnH5A-57" style="edgeStyle=orthogonalEdgeStyle;rounded=0;orthogonalLoop=1;jettySize=auto;html=1;exitX=0.5;exitY=1;exitDx=0;exitDy=0;entryX=0;entryY=0.75;entryDx=0;entryDy=0;strokeColor=#A8201A;fontColor=default;fillColor=#FAE5C7;endArrow=none;endFill=0;labelBackgroundColor=none;fontStyle=1" parent="1" source="-deDmXjM0P6Qr-qPnH5A-55" target="-deDmXjM0P6Qr-qPnH5A-30" edge="1">
          <mxGeometry relative="1" as="geometry" />
        </mxCell>
        <mxCell id="-deDmXjM0P6Qr-qPnH5A-55" value="sosed" style="shape=rhombus;perimeter=rhombusPerimeter;whiteSpace=wrap;html=1;align=center;strokeColor=#0F8B8D;fontColor=#143642;fillColor=#FAE5C7;fontStyle=1;labelBackgroundColor=none;" parent="1" vertex="1">
          <mxGeometry x="20" y="780" width="100" height="45" as="geometry" />
        </mxCell>
        <mxCell id="-deDmXjM0P6Qr-qPnH5A-58" value="N" style="text;html=1;align=center;verticalAlign=middle;whiteSpace=wrap;rounded=0;fontColor=#143642;fontStyle=1;labelBackgroundColor=none;" parent="1" vertex="1">
          <mxGeometry y="760" width="60" height="30" as="geometry" />
        </mxCell>
        <mxCell id="-deDmXjM0P6Qr-qPnH5A-59" value="M" style="text;html=1;align=center;verticalAlign=middle;whiteSpace=wrap;rounded=0;fontColor=#143642;fontStyle=1;labelBackgroundColor=none;" parent="1" vertex="1">
          <mxGeometry y="815" width="60" height="30" as="geometry" />
        </mxCell>
        <mxCell id="-deDmXjM0P6Qr-qPnH5A-60" value="TuristisckiAgencii" style="rounded=0;whiteSpace=wrap;html=1;labelBackgroundColor=none;fillColor=#FAE5C7;strokeColor=#0F8B8D;fontColor=#143642;fontStyle=1" parent="1" vertex="1">
          <mxGeometry x="-870" y="440" width="120" height="60" as="geometry" />
        </mxCell>
        <mxCell id="-deDmXjM0P6Qr-qPnH5A-61" value="&lt;u&gt;ime&lt;/u&gt;" style="ellipse;whiteSpace=wrap;html=1;align=center;strokeColor=#0F8B8D;fontColor=#143642;fillColor=#FAE5C7;fontStyle=1;labelBackgroundColor=none;" parent="1" vertex="1">
          <mxGeometry x="-740" y="350" width="100" height="40" as="geometry" />
        </mxCell>
        <mxCell id="-deDmXjM0P6Qr-qPnH5A-62" value="lokacija" style="ellipse;whiteSpace=wrap;html=1;align=center;strokeColor=#0F8B8D;fontColor=#143642;fillColor=#FAE5C7;fontStyle=1;labelBackgroundColor=none;" parent="1" vertex="1">
          <mxGeometry x="-860" y="335" width="100" height="40" as="geometry" />
        </mxCell>
        <mxCell id="-deDmXjM0P6Qr-qPnH5A-63" value="" style="endArrow=none;html=1;rounded=0;strokeColor=#A8201A;fontColor=default;fillColor=#FAE5C7;entryX=0;entryY=1;entryDx=0;entryDy=0;exitX=0.75;exitY=0;exitDx=0;exitDy=0;fontStyle=1;labelBackgroundColor=none;" parent="1" source="-deDmXjM0P6Qr-qPnH5A-60" target="-deDmXjM0P6Qr-qPnH5A-61" edge="1">
          <mxGeometry width="50" height="50" relative="1" as="geometry">
            <mxPoint x="-330" y="650" as="sourcePoint" />
            <mxPoint x="-280" y="600" as="targetPoint" />
          </mxGeometry>
        </mxCell>
        <mxCell id="-deDmXjM0P6Qr-qPnH5A-64" value="" style="endArrow=none;html=1;rounded=0;strokeColor=#A8201A;fontColor=default;fillColor=#FAE5C7;entryX=0.5;entryY=1;entryDx=0;entryDy=0;exitX=0.25;exitY=0;exitDx=0;exitDy=0;fontStyle=1;labelBackgroundColor=none;" parent="1" source="-deDmXjM0P6Qr-qPnH5A-60" target="-deDmXjM0P6Qr-qPnH5A-62" edge="1">
          <mxGeometry width="50" height="50" relative="1" as="geometry">
            <mxPoint x="-70" y="540" as="sourcePoint" />
            <mxPoint x="15" y="514" as="targetPoint" />
          </mxGeometry>
        </mxCell>
        <mxCell id="-deDmXjM0P6Qr-qPnH5A-65" value="Patuvanje" style="rounded=0;whiteSpace=wrap;html=1;labelBackgroundColor=none;fillColor=#FAE5C7;strokeColor=#0F8B8D;fontColor=#143642;fontStyle=1" parent="1" vertex="1">
          <mxGeometry x="-485" y="440" width="120" height="60" as="geometry" />
        </mxCell>
        <mxCell id="-deDmXjM0P6Qr-qPnH5A-66" value="datumBegin" style="ellipse;whiteSpace=wrap;html=1;align=center;strokeColor=#0F8B8D;fontColor=#143642;fillColor=#FAE5C7;fontStyle=1;labelBackgroundColor=none;" parent="1" vertex="1">
          <mxGeometry x="-560" y="330" width="100" height="40" as="geometry" />
        </mxCell>
        <mxCell id="-deDmXjM0P6Qr-qPnH5A-67" value="datumEnd" style="ellipse;whiteSpace=wrap;html=1;align=center;strokeColor=#0F8B8D;fontColor=#143642;fillColor=#FAE5C7;fontStyle=1;labelBackgroundColor=none;" parent="1" vertex="1">
          <mxGeometry x="-500" y="290" width="100" height="40" as="geometry" />
        </mxCell>
        <mxCell id="-deDmXjM0P6Qr-qPnH5A-68" value="cena" style="ellipse;whiteSpace=wrap;html=1;align=center;strokeColor=#0F8B8D;fontColor=#143642;fillColor=#FAE5C7;fontStyle=1;labelBackgroundColor=none;" parent="1" vertex="1">
          <mxGeometry x="-420" y="320" width="100" height="40" as="geometry" />
        </mxCell>
        <mxCell id="-deDmXjM0P6Qr-qPnH5A-69" value="organizirano" style="shape=rhombus;perimeter=rhombusPerimeter;whiteSpace=wrap;html=1;align=center;strokeColor=#0F8B8D;fontColor=#143642;fillColor=#FAE5C7;fontStyle=1;labelBackgroundColor=none;" parent="1" vertex="1">
          <mxGeometry x="-660" y="450" width="100" height="40" as="geometry" />
        </mxCell>
        <mxCell id="-deDmXjM0P6Qr-qPnH5A-70" value="" style="endArrow=none;html=1;rounded=0;strokeColor=#A8201A;fontColor=default;fillColor=#FAE5C7;entryX=1;entryY=0.5;entryDx=0;entryDy=0;shape=link;width=-9.047619047619047;exitX=0;exitY=0.5;exitDx=0;exitDy=0;fontStyle=1;labelBackgroundColor=none;" parent="1" source="-deDmXjM0P6Qr-qPnH5A-65" target="-deDmXjM0P6Qr-qPnH5A-69" edge="1">
          <mxGeometry width="50" height="50" relative="1" as="geometry">
            <mxPoint x="-480" y="460" as="sourcePoint" />
            <mxPoint x="-350" y="390" as="targetPoint" />
          </mxGeometry>
        </mxCell>
        <mxCell id="-deDmXjM0P6Qr-qPnH5A-71" value="" style="endArrow=none;html=1;rounded=0;strokeColor=#A8201A;fontColor=default;fillColor=#FAE5C7;entryX=1;entryY=0.5;entryDx=0;entryDy=0;exitX=0;exitY=0.5;exitDx=0;exitDy=0;fontStyle=1;labelBackgroundColor=none;" parent="1" source="-deDmXjM0P6Qr-qPnH5A-69" target="-deDmXjM0P6Qr-qPnH5A-60" edge="1">
          <mxGeometry width="50" height="50" relative="1" as="geometry">
            <mxPoint x="-400" y="440" as="sourcePoint" />
            <mxPoint x="-350" y="390" as="targetPoint" />
          </mxGeometry>
        </mxCell>
        <mxCell id="-deDmXjM0P6Qr-qPnH5A-72" value="" style="endArrow=none;html=1;rounded=0;strokeColor=#A8201A;fontColor=default;fillColor=#FAE5C7;exitX=0.25;exitY=0;exitDx=0;exitDy=0;entryX=0.5;entryY=1;entryDx=0;entryDy=0;fontStyle=1;labelBackgroundColor=none;" parent="1" source="-deDmXjM0P6Qr-qPnH5A-65" target="-deDmXjM0P6Qr-qPnH5A-66" edge="1">
          <mxGeometry width="50" height="50" relative="1" as="geometry">
            <mxPoint x="-400" y="440" as="sourcePoint" />
            <mxPoint x="-350" y="390" as="targetPoint" />
          </mxGeometry>
        </mxCell>
        <mxCell id="-deDmXjM0P6Qr-qPnH5A-73" value="" style="endArrow=none;html=1;rounded=0;strokeColor=#A8201A;fontColor=default;fillColor=#FAE5C7;exitX=0.5;exitY=0;exitDx=0;exitDy=0;entryX=0.5;entryY=1;entryDx=0;entryDy=0;fontStyle=1;labelBackgroundColor=none;" parent="1" source="-deDmXjM0P6Qr-qPnH5A-65" target="-deDmXjM0P6Qr-qPnH5A-67" edge="1">
          <mxGeometry width="50" height="50" relative="1" as="geometry">
            <mxPoint x="-410" y="440" as="sourcePoint" />
            <mxPoint x="-400" y="400" as="targetPoint" />
          </mxGeometry>
        </mxCell>
        <mxCell id="-deDmXjM0P6Qr-qPnH5A-74" value="" style="endArrow=none;html=1;rounded=0;strokeColor=#A8201A;fontColor=default;fillColor=#FAE5C7;exitX=0.75;exitY=0;exitDx=0;exitDy=0;entryX=0;entryY=1;entryDx=0;entryDy=0;fontStyle=1;labelBackgroundColor=none;" parent="1" source="-deDmXjM0P6Qr-qPnH5A-65" target="-deDmXjM0P6Qr-qPnH5A-68" edge="1">
          <mxGeometry width="50" height="50" relative="1" as="geometry">
            <mxPoint x="-380" y="440" as="sourcePoint" />
            <mxPoint x="-331" y="362" as="targetPoint" />
          </mxGeometry>
        </mxCell>
        <mxCell id="-deDmXjM0P6Qr-qPnH5A-75" value="1" style="text;html=1;align=center;verticalAlign=middle;whiteSpace=wrap;rounded=0;fontColor=#143642;fontStyle=1;labelBackgroundColor=none;" parent="1" vertex="1">
          <mxGeometry x="-710" y="430" width="60" height="30" as="geometry" />
        </mxCell>
        <mxCell id="-deDmXjM0P6Qr-qPnH5A-76" value="N" style="text;html=1;align=center;verticalAlign=middle;whiteSpace=wrap;rounded=0;fontColor=#143642;fontStyle=1;labelBackgroundColor=none;" parent="1" vertex="1">
          <mxGeometry x="-590" y="430" width="60" height="30" as="geometry" />
        </mxCell>
        <mxCell id="-deDmXjM0P6Qr-qPnH5A-77" value="poseta" style="shape=rhombus;perimeter=rhombusPerimeter;whiteSpace=wrap;html=1;align=center;strokeColor=#0F8B8D;fontColor=#143642;fillColor=#FAE5C7;fontStyle=1;labelBackgroundColor=none;" parent="1" vertex="1">
          <mxGeometry x="-90" y="625" width="120" height="55" as="geometry" />
        </mxCell>
        <mxCell id="-deDmXjM0P6Qr-qPnH5A-78" value="" style="endArrow=none;html=1;rounded=0;strokeColor=#A8201A;fontColor=default;fillColor=#FAE5C7;exitX=0;exitY=0.5;exitDx=0;exitDy=0;entryX=1;entryY=0.5;entryDx=0;entryDy=0;fontStyle=1;labelBackgroundColor=none;" parent="1" source="-deDmXjM0P6Qr-qPnH5A-27" target="-deDmXjM0P6Qr-qPnH5A-77" edge="1">
          <mxGeometry width="50" height="50" relative="1" as="geometry">
            <mxPoint x="840" y="640" as="sourcePoint" />
            <mxPoint x="40" y="488" as="targetPoint" />
          </mxGeometry>
        </mxCell>
        <mxCell id="-deDmXjM0P6Qr-qPnH5A-79" value="" style="endArrow=none;html=1;rounded=0;strokeColor=#A8201A;fontColor=default;fillColor=#FAE5C7;exitX=0;exitY=0.5;exitDx=0;exitDy=0;entryX=1;entryY=0.5;entryDx=0;entryDy=0;shape=link;fontStyle=1;labelBackgroundColor=none;" parent="1" source="-deDmXjM0P6Qr-qPnH5A-77" target="-deDmXjM0P6Qr-qPnH5A-65" edge="1">
          <mxGeometry width="50" height="50" relative="1" as="geometry">
            <mxPoint x="840" y="640" as="sourcePoint" />
            <mxPoint x="890" y="590" as="targetPoint" />
          </mxGeometry>
        </mxCell>
        <mxCell id="-deDmXjM0P6Qr-qPnH5A-80" value="N" style="text;html=1;align=center;verticalAlign=middle;whiteSpace=wrap;rounded=0;fontColor=#143642;fontStyle=1;labelBackgroundColor=none;" parent="1" vertex="1">
          <mxGeometry x="-110" y="610" width="60" height="30" as="geometry" />
        </mxCell>
        <mxCell id="-deDmXjM0P6Qr-qPnH5A-81" value="M" style="text;html=1;align=center;verticalAlign=middle;whiteSpace=wrap;rounded=0;fontColor=#143642;fontStyle=1;labelBackgroundColor=none;" parent="1" vertex="1">
          <mxGeometry y="610" width="60" height="30" as="geometry" />
        </mxCell>
        <mxCell id="-deDmXjM0P6Qr-qPnH5A-83" value="soddrzi" style="shape=rhombus;perimeter=rhombusPerimeter;whiteSpace=wrap;html=1;align=center;strokeColor=#0F8B8D;fontColor=#143642;fillColor=#FAE5C7;fontStyle=1;labelBackgroundColor=none;" parent="1" vertex="1">
          <mxGeometry x="600" y="310" width="120" height="60" as="geometry" />
        </mxCell>
        <mxCell id="-deDmXjM0P6Qr-qPnH5A-84" value="" style="endArrow=none;html=1;rounded=0;strokeColor=#A8201A;fontColor=default;fillColor=#FAE5C7;entryX=0.5;entryY=1;entryDx=0;entryDy=0;exitX=0.5;exitY=0;exitDx=0;exitDy=0;shape=link;fontStyle=1;labelBackgroundColor=none;" parent="1" source="-deDmXjM0P6Qr-qPnH5A-83" target="-deDmXjM0P6Qr-qPnH5A-8" edge="1">
          <mxGeometry width="50" height="50" relative="1" as="geometry">
            <mxPoint x="550" y="360" as="sourcePoint" />
            <mxPoint x="600" y="310" as="targetPoint" />
          </mxGeometry>
        </mxCell>
        <mxCell id="-deDmXjM0P6Qr-qPnH5A-85" value="" style="endArrow=none;html=1;rounded=0;strokeColor=#A8201A;fontColor=default;fillColor=#FAE5C7;entryX=0.5;entryY=1;entryDx=0;entryDy=0;exitX=0.5;exitY=0;exitDx=0;exitDy=0;shape=link;fontStyle=1;labelBackgroundColor=none;" parent="1" source="-deDmXjM0P6Qr-qPnH5A-27" target="-deDmXjM0P6Qr-qPnH5A-83" edge="1">
          <mxGeometry width="50" height="50" relative="1" as="geometry">
            <mxPoint x="650" y="310" as="sourcePoint" />
            <mxPoint x="790" y="160" as="targetPoint" />
          </mxGeometry>
        </mxCell>
        <mxCell id="-deDmXjM0P6Qr-qPnH5A-86" value="N" style="text;html=1;align=center;verticalAlign=middle;whiteSpace=wrap;rounded=0;fontColor=#143642;fontStyle=1;labelBackgroundColor=none;" parent="1" vertex="1">
          <mxGeometry x="660" y="370" width="60" height="30" as="geometry" />
        </mxCell>
        <mxCell id="-deDmXjM0P6Qr-qPnH5A-87" value="M (1)" style="text;html=1;align=center;verticalAlign=middle;whiteSpace=wrap;rounded=0;fontColor=#143642;fontStyle=1;labelBackgroundColor=none;" parent="1" vertex="1">
          <mxGeometry x="670" y="290" width="60" height="30" as="geometry" />
        </mxCell>
        <mxCell id="-deDmXjM0P6Qr-qPnH5A-96" value="&lt;span&gt;prisustuva&lt;/span&gt;" style="shape=rhombus;perimeter=rhombusPerimeter;whiteSpace=wrap;html=1;align=center;strokeColor=#0F8B8D;fontColor=#143642;fillColor=#FAE5C7;fontStyle=1;labelBackgroundColor=none;" parent="1" vertex="1">
          <mxGeometry x="-120" y="240" width="120" height="60" as="geometry" />
        </mxCell>
        <mxCell id="-deDmXjM0P6Qr-qPnH5A-97" value="" style="endArrow=none;html=1;rounded=0;strokeColor=#A8201A;fontColor=default;fillColor=#FAE5C7;entryX=0.25;entryY=1;entryDx=0;entryDy=0;exitX=1;exitY=0.5;exitDx=0;exitDy=0;fontStyle=1;shape=link;labelBackgroundColor=none;" parent="1" source="-deDmXjM0P6Qr-qPnH5A-96" target="ZVKCJuTZ52yj1syS9qNp-1" edge="1">
          <mxGeometry width="50" height="50" relative="1" as="geometry">
            <mxPoint x="-60" y="430" as="sourcePoint" />
            <mxPoint x="-10" y="380" as="targetPoint" />
          </mxGeometry>
        </mxCell>
        <mxCell id="-deDmXjM0P6Qr-qPnH5A-98" value="" style="endArrow=none;html=1;rounded=0;strokeColor=#A8201A;fontColor=default;fillColor=#FAE5C7;entryX=1;entryY=0;entryDx=0;entryDy=0;exitX=0;exitY=0.5;exitDx=0;exitDy=0;shape=link;fontStyle=1;labelBackgroundColor=none;" parent="1" source="-deDmXjM0P6Qr-qPnH5A-96" target="-deDmXjM0P6Qr-qPnH5A-65" edge="1">
          <mxGeometry width="50" height="50" relative="1" as="geometry">
            <mxPoint x="-20" y="290" as="sourcePoint" />
            <mxPoint x="200" y="170" as="targetPoint" />
          </mxGeometry>
        </mxCell>
        <mxCell id="-deDmXjM0P6Qr-qPnH5A-99" value="N" style="text;html=1;align=center;verticalAlign=middle;whiteSpace=wrap;rounded=0;fontColor=#143642;fontStyle=1;labelBackgroundColor=none;" parent="1" vertex="1">
          <mxGeometry x="-130" y="230" width="60" height="30" as="geometry" />
        </mxCell>
        <mxCell id="-deDmXjM0P6Qr-qPnH5A-100" value="M" style="text;html=1;align=center;verticalAlign=middle;whiteSpace=wrap;rounded=0;fontColor=#143642;fontStyle=1;labelBackgroundColor=none;" parent="1" vertex="1">
          <mxGeometry x="-50" y="230" width="60" height="30" as="geometry" />
        </mxCell>
        <mxCell id="-deDmXjM0P6Qr-qPnH5A-109" value="FakultativnaPoseta" style="shape=ext;margin=3;double=1;whiteSpace=wrap;html=1;align=center;strokeColor=#0F8B8D;fontColor=#143642;fillColor=#FAE5C7;fontStyle=1;labelBackgroundColor=none;" parent="1" vertex="1">
          <mxGeometry x="40" y="440" width="130" height="60" as="geometry" />
        </mxCell>
        <mxCell id="-deDmXjM0P6Qr-qPnH5A-110" value="" style="endArrow=none;html=1;rounded=0;strokeColor=#A8201A;fontColor=default;fillColor=#FAE5C7;exitX=1;exitY=0.5;exitDx=0;exitDy=0;fontStyle=1;labelBackgroundColor=none;" parent="1" source="-deDmXjM0P6Qr-qPnH5A-65" target="-deDmXjM0P6Qr-qPnH5A-113" edge="1">
          <mxGeometry width="50" height="50" relative="1" as="geometry">
            <mxPoint x="180" y="580" as="sourcePoint" />
            <mxPoint x="-220" y="470" as="targetPoint" />
          </mxGeometry>
        </mxCell>
        <mxCell id="-deDmXjM0P6Qr-qPnH5A-111" value="" style="endArrow=none;html=1;rounded=0;strokeColor=#A8201A;fontColor=default;fillColor=#FAE5C7;entryX=0.5;entryY=1;entryDx=0;entryDy=0;fontStyle=1;exitX=0.5;exitY=0;exitDx=0;exitDy=0;labelBackgroundColor=none;" parent="1" source="-deDmXjM0P6Qr-qPnH5A-117" target="ZVKCJuTZ52yj1syS9qNp-1" edge="1">
          <mxGeometry width="50" height="50" relative="1" as="geometry">
            <mxPoint x="190" y="250" as="sourcePoint" />
            <mxPoint x="230" y="530" as="targetPoint" />
          </mxGeometry>
        </mxCell>
        <mxCell id="-deDmXjM0P6Qr-qPnH5A-112" value="" style="endArrow=none;html=1;rounded=0;strokeColor=#A8201A;fontColor=default;fillColor=#FAE5C7;entryX=0;entryY=0;entryDx=0;entryDy=0;fontStyle=1;exitX=1;exitY=0.5;exitDx=0;exitDy=0;labelBackgroundColor=none;" parent="1" source="-deDmXjM0P6Qr-qPnH5A-119" target="-deDmXjM0P6Qr-qPnH5A-27" edge="1">
          <mxGeometry width="50" height="50" relative="1" as="geometry">
            <mxPoint x="310" y="530" as="sourcePoint" />
            <mxPoint x="230" y="170" as="targetPoint" />
          </mxGeometry>
        </mxCell>
        <mxCell id="-deDmXjM0P6Qr-qPnH5A-113" value="ima" style="shape=rhombus;double=1;perimeter=rhombusPerimeter;whiteSpace=wrap;html=1;align=center;strokeColor=#0F8B8D;fontColor=#143642;fillColor=#FAE5C7;fontStyle=1;labelBackgroundColor=none;" parent="1" vertex="1">
          <mxGeometry x="-210" y="440" width="120" height="60" as="geometry" />
        </mxCell>
        <mxCell id="-deDmXjM0P6Qr-qPnH5A-114" value="" style="endArrow=none;html=1;rounded=0;strokeColor=#A8201A;fontColor=default;fillColor=#FAE5C7;exitX=1;exitY=0.5;exitDx=0;exitDy=0;entryX=0;entryY=0.5;entryDx=0;entryDy=0;shape=link;labelBackgroundColor=none;fontStyle=1" parent="1" source="-deDmXjM0P6Qr-qPnH5A-113" target="-deDmXjM0P6Qr-qPnH5A-109" edge="1">
          <mxGeometry width="50" height="50" relative="1" as="geometry">
            <mxPoint x="30" y="530" as="sourcePoint" />
            <mxPoint x="80" y="480" as="targetPoint" />
          </mxGeometry>
        </mxCell>
        <mxCell id="-deDmXjM0P6Qr-qPnH5A-115" value="1" style="text;html=1;align=center;verticalAlign=middle;whiteSpace=wrap;rounded=0;fontColor=#143642;fontStyle=1;labelBackgroundColor=none;" parent="1" vertex="1">
          <mxGeometry x="-250" y="430" width="60" height="30" as="geometry" />
        </mxCell>
        <mxCell id="-deDmXjM0P6Qr-qPnH5A-116" value="N" style="text;html=1;align=center;verticalAlign=middle;whiteSpace=wrap;rounded=0;fontColor=#143642;fontStyle=1;labelBackgroundColor=none;" parent="1" vertex="1">
          <mxGeometry x="-120" y="430" width="60" height="30" as="geometry" />
        </mxCell>
        <mxCell id="-deDmXjM0P6Qr-qPnH5A-117" value="izbira" style="shape=rhombus;perimeter=rhombusPerimeter;whiteSpace=wrap;html=1;align=center;strokeColor=#0F8B8D;fontColor=#143642;fillColor=#FAE5C7;labelBackgroundColor=none;fontStyle=1" parent="1" vertex="1">
          <mxGeometry x="130" y="270" width="100" height="50" as="geometry" />
        </mxCell>
        <mxCell id="-deDmXjM0P6Qr-qPnH5A-118" value="" style="endArrow=none;html=1;rounded=0;strokeColor=#A8201A;fontColor=default;fillColor=#FAE5C7;entryX=0.5;entryY=1;entryDx=0;entryDy=0;exitX=0.565;exitY=-0.001;exitDx=0;exitDy=0;exitPerimeter=0;shape=link;labelBackgroundColor=none;fontStyle=1" parent="1" source="-deDmXjM0P6Qr-qPnH5A-109" target="-deDmXjM0P6Qr-qPnH5A-117" edge="1">
          <mxGeometry width="50" height="50" relative="1" as="geometry">
            <mxPoint x="30" y="410" as="sourcePoint" />
            <mxPoint x="80" y="360" as="targetPoint" />
          </mxGeometry>
        </mxCell>
        <mxCell id="-deDmXjM0P6Qr-qPnH5A-119" value="postoi" style="shape=rhombus;perimeter=rhombusPerimeter;whiteSpace=wrap;html=1;align=center;strokeColor=#0F8B8D;fontColor=#143642;fillColor=#FAE5C7;labelBackgroundColor=none;fontStyle=1" parent="1" vertex="1">
          <mxGeometry x="270" y="460" width="100" height="50" as="geometry" />
        </mxCell>
        <mxCell id="-deDmXjM0P6Qr-qPnH5A-120" value="" style="endArrow=none;html=1;rounded=0;strokeColor=#A8201A;fontColor=default;fillColor=#FAE5C7;entryX=0;entryY=0.5;entryDx=0;entryDy=0;fontStyle=1;exitX=1;exitY=0.5;exitDx=0;exitDy=0;shape=link;labelBackgroundColor=none;" parent="1" source="-deDmXjM0P6Qr-qPnH5A-109" target="-deDmXjM0P6Qr-qPnH5A-119" edge="1">
          <mxGeometry width="50" height="50" relative="1" as="geometry">
            <mxPoint x="380" y="525" as="sourcePoint" />
            <mxPoint x="430" y="580" as="targetPoint" />
          </mxGeometry>
        </mxCell>
        <mxCell id="-deDmXjM0P6Qr-qPnH5A-121" value="Дали се ондесуваат на индивидуални или на групирани факултативни посети?" style="text;html=1;align=center;verticalAlign=middle;whiteSpace=wrap;rounded=0;fontColor=#143642;labelBackgroundColor=none;fontStyle=1" parent="1" vertex="1">
          <mxGeometry x="-50" y="325" width="150" height="75" as="geometry" />
        </mxCell>
        <mxCell id="-deDmXjM0P6Qr-qPnH5A-122" value="M" style="text;html=1;align=center;verticalAlign=middle;whiteSpace=wrap;rounded=0;fontColor=#143642;fontStyle=1;labelBackgroundColor=none;" parent="1" vertex="1">
          <mxGeometry x="250" y="440" width="60" height="30" as="geometry" />
        </mxCell>
        <mxCell id="-deDmXjM0P6Qr-qPnH5A-123" value="1" style="text;html=1;align=center;verticalAlign=middle;whiteSpace=wrap;rounded=0;fontColor=#143642;fontStyle=1;labelBackgroundColor=none;" parent="1" vertex="1">
          <mxGeometry x="340" y="440" width="60" height="30" as="geometry" />
        </mxCell>
        <mxCell id="-deDmXjM0P6Qr-qPnH5A-124" value="Дали секое патување мора да има фак. посета" style="text;html=1;align=center;verticalAlign=middle;whiteSpace=wrap;rounded=0;fontColor=#143642;fontStyle=1" parent="1" vertex="1">
          <mxGeometry x="-485" y="570" width="95" height="50" as="geometry" />
        </mxCell>
        <mxCell id="-deDmXjM0P6Qr-qPnH5A-125" value="дали овие две треба со целосно учество" style="text;html=1;align=center;verticalAlign=middle;whiteSpace=wrap;rounded=0;fontColor=#143642;fontStyle=1" parent="1" vertex="1">
          <mxGeometry x="210" y="355" width="70" height="35" as="geometry" />
        </mxCell>
        <mxCell id="-deDmXjM0P6Qr-qPnH5A-126" value="дали се однесува на една листа или на повеќе" style="text;html=1;align=center;verticalAlign=middle;whiteSpace=wrap;rounded=0;fontColor=#143642;fontStyle=1" parent="1" vertex="1">
          <mxGeometry x="780" y="265" width="80" height="60" as="geometry" />
        </mxCell>
        <mxCell id="-deDmXjM0P6Qr-qPnH5A-127" value="M (1)" style="text;html=1;align=center;verticalAlign=middle;whiteSpace=wrap;rounded=0;fontColor=#143642;fontStyle=1;labelBackgroundColor=none;" parent="1" vertex="1">
          <mxGeometry x="90" y="255" width="60" height="30" as="geometry" />
        </mxCell>
        <mxCell id="-deDmXjM0P6Qr-qPnH5A-128" value="N" style="text;html=1;align=center;verticalAlign=middle;whiteSpace=wrap;rounded=0;fontColor=#143642;fontStyle=1;labelBackgroundColor=none;" parent="1" vertex="1">
          <mxGeometry x="90" y="320" width="60" height="30" as="geometry" />
        </mxCell>
      </root>
    </mxGraphModel>
  </diagram>
  <diagram id="ZrijuNNGcM_0_gg9kRZQ" name="Page-4">
    <mxGraphModel dx="1050" dy="569" grid="1" gridSize="10" guides="1" tooltips="1" connect="1" arrows="1" fold="1" page="1" pageScale="1" pageWidth="850" pageHeight="1100" math="0" shadow="0">
      <root>
        <mxCell id="0" />
        <mxCell id="1" parent="0" />
      </root>
    </mxGraphModel>
  </diagram>
</mxfile>
